<svg xmlns="http://www.w3.org/2000/svg" viewBox="0 0 750 500"><g id="freepik--background-complete--inject-4"><path d="M705.45,113.74c.61-4.38-5.58-8-10.22-8.36-2.22-.18-4.52.16-6.62-.57-4.55-1.58-6.36-7.46-10.8-9.33-3.32-1.4-7.14-.15-10.35,1.46s-6.4,3.66-10,3.89c-3.12.2-6.52-1-9.25.57-2,1.14-3.11,3.48-5,4.87s-4.23,1.64-6.51,1.77-4.64.14-6.72,1.09-3.79,3.15-3.36,5.39Z" style="fill:#f5f5f5"></path><path d="M135.12,62.88c.6-4.38-5.58-8-10.22-8.36-2.22-.18-4.52.16-6.62-.57-4.55-1.59-6.36-7.46-10.8-9.33-3.32-1.4-7.14-.16-10.35,1.46s-6.4,3.66-10,3.89c-3.13.2-6.52-1-9.26.56-2,1.14-3.1,3.49-5,4.88s-4.23,1.64-6.51,1.76-4.64.15-6.72,1.1-3.79,3.14-3.36,5.39Z" style="fill:#f5f5f5"></path><path d="M479.88,65.34c.77-5.57-7.1-10.16-13-10.63-2.81-.23-5.74.2-8.41-.73-5.79-2-8.1-9.49-13.74-11.87-4.22-1.78-9.08-.2-13.17,1.86s-8.14,4.65-12.71,4.94c-4,.26-8.29-1.21-11.77.73-2.59,1.44-3.95,4.43-6.34,6.19s-5.39,2.09-8.29,2.25-5.9.19-8.54,1.4-4.82,4-4.28,6.85Z" style="fill:#ebebeb"></path><path d="M275.73,106.06c.63-4.57-5.81-8.32-10.65-8.71-2.31-.19-4.71.16-6.9-.6C253.44,95.1,251.55,89,246.92,87c-3.45-1.45-7.43-.16-10.79,1.53s-6.66,3.81-10.4,4c-3.26.21-6.8-1-9.65.59-2.12,1.19-3.23,3.63-5.19,5.08s-4.41,1.71-6.79,1.84-4.84.15-7,1.14-3.95,3.28-3.5,5.62Z" style="fill:#ebebeb"></path><rect x="531.3" y="104.7" width="81.64" height="345.24" transform="translate(1144.24 554.64) rotate(180)" style="fill:#ebebeb"></rect><rect x="572.91" y="128.9" width="24.81" height="47.82" transform="translate(1170.63 305.61) rotate(180)" style="fill:#fff"></rect><path d="M584.62,176.71c.18,0,.33-10.7.33-23.9s-.15-23.91-.33-23.91-.34,10.7-.34,23.91S584.43,176.71,584.62,176.71Z" style="fill:#e0e0e0"></path><path d="M572.91,145.51c0,.18,5.55.33,12.4.33s12.41-.15,12.41-.33-5.55-.33-12.41-.33S572.91,145.33,572.91,145.51Z" style="fill:#e0e0e0"></path><path d="M572.78,162.61c0,.18,5.6.33,12.51.33s12.51-.15,12.51-.33-5.6-.33-12.51-.33S572.78,162.43,572.78,162.61Z" style="fill:#e0e0e0"></path><rect x="572.91" y="191.35" width="24.81" height="47.82" transform="translate(1170.63 430.52) rotate(180)" style="fill:#fff"></rect><path d="M584.62,239.17c.18,0,.33-10.7.33-23.91s-.15-23.91-.33-23.91-.34,10.71-.34,23.91S584.43,239.17,584.62,239.17Z" style="fill:#e0e0e0"></path><path d="M572.91,208c0,.18,5.55.33,12.4.33s12.41-.15,12.41-.33-5.55-.34-12.41-.34S572.91,207.78,572.91,208Z" style="fill:#e0e0e0"></path><path d="M572.78,225.07c0,.18,5.6.33,12.51.33s12.51-.15,12.51-.33-5.6-.33-12.51-.33S572.78,224.88,572.78,225.07Z" style="fill:#e0e0e0"></path><rect x="572.91" y="253.81" width="24.81" height="47.82" transform="translate(1170.63 555.44) rotate(180)" style="fill:#fff"></rect><path d="M584.62,301.63c.18,0,.33-10.71.33-23.91s-.15-23.91-.33-23.91-.34,10.7-.34,23.91S584.43,301.63,584.62,301.63Z" style="fill:#e0e0e0"></path><path d="M572.91,270.42c0,.19,5.55.34,12.4.34s12.41-.15,12.41-.34-5.55-.33-12.41-.33S572.91,270.24,572.91,270.42Z" style="fill:#e0e0e0"></path><path d="M572.78,287.53c0,.18,5.6.33,12.51.33s12.51-.15,12.51-.33-5.6-.34-12.51-.34S572.78,287.34,572.78,287.53Z" style="fill:#e0e0e0"></path><rect x="572.91" y="316.27" width="24.81" height="47.82" transform="translate(1170.63 680.36) rotate(180)" style="fill:#fff"></rect><path d="M584.62,364.09c.18,0,.33-10.71.33-23.91s-.15-23.91-.33-23.91-.34,10.7-.34,23.91S584.43,364.09,584.62,364.09Z" style="fill:#e0e0e0"></path><path d="M572.91,332.88c0,.19,5.55.33,12.4.33s12.41-.14,12.41-.33-5.55-.33-12.41-.33S572.91,332.7,572.91,332.88Z" style="fill:#e0e0e0"></path><path d="M572.78,350c0,.19,5.6.34,12.51.34s12.51-.15,12.51-.34-5.6-.33-12.51-.33S572.78,349.8,572.78,350Z" style="fill:#e0e0e0"></path><rect x="496.58" y="104.7" width="59.48" height="345.24" transform="translate(1052.64 554.64) rotate(180)" style="fill:#e0e0e0"></rect><rect x="512.78" y="128.9" width="24.81" height="47.82" transform="translate(1050.37 305.61) rotate(180)" style="fill:#fff"></rect><path d="M524.49,176.71c.18,0,.33-10.7.33-23.9s-.15-23.91-.33-23.91-.34,10.7-.34,23.91S524.3,176.71,524.49,176.71Z" style="fill:#e0e0e0"></path><path d="M512.78,145.51c0,.18,5.55.33,12.4.33s12.41-.15,12.41-.33-5.55-.33-12.41-.33S512.78,145.33,512.78,145.51Z" style="fill:#e0e0e0"></path><path d="M512.65,162.61c0,.18,5.6.33,12.51.33s12.5-.15,12.5-.33-5.59-.33-12.5-.33S512.65,162.43,512.65,162.61Z" style="fill:#e0e0e0"></path><rect x="512.78" y="191.87" width="24.81" height="47.82" transform="translate(1050.37 431.55) rotate(180)" style="fill:#fff"></rect><path d="M524.49,239.68c.18,0,.33-10.7.33-23.9s-.15-23.91-.33-23.91-.34,10.7-.34,23.91S524.3,239.68,524.49,239.68Z" style="fill:#e0e0e0"></path><path d="M512.78,208.48c0,.18,5.55.33,12.4.33s12.41-.15,12.41-.33-5.55-.33-12.41-.33S512.78,208.3,512.78,208.48Z" style="fill:#e0e0e0"></path><path d="M512.65,225.58c0,.18,5.6.33,12.51.33s12.5-.15,12.5-.33-5.59-.33-12.5-.33S512.65,225.4,512.65,225.58Z" style="fill:#e0e0e0"></path><rect x="512.78" y="254.84" width="24.81" height="47.82" transform="translate(1050.37 557.49) rotate(180)" style="fill:#fff"></rect><path d="M524.49,302.65c.18,0,.33-10.7.33-23.9s-.15-23.91-.33-23.91-.34,10.7-.34,23.91S524.3,302.65,524.49,302.65Z" style="fill:#e0e0e0"></path><path d="M512.78,271.45c0,.18,5.55.33,12.4.33s12.41-.15,12.41-.33-5.55-.33-12.41-.33S512.78,271.27,512.78,271.45Z" style="fill:#e0e0e0"></path><path d="M512.65,288.55c0,.18,5.6.33,12.51.33s12.5-.15,12.5-.33-5.59-.33-12.5-.33S512.65,288.37,512.65,288.55Z" style="fill:#e0e0e0"></path><rect x="512.78" y="317.81" width="24.81" height="47.82" transform="translate(1050.37 683.43) rotate(180)" style="fill:#fff"></rect><path d="M524.49,365.62c.18,0,.33-10.7.33-23.9s-.15-23.91-.33-23.91-.34,10.7-.34,23.91S524.3,365.62,524.49,365.62Z" style="fill:#e0e0e0"></path><path d="M512.78,334.42c0,.18,5.55.33,12.4.33s12.41-.15,12.41-.33-5.55-.33-12.41-.33S512.78,334.24,512.78,334.42Z" style="fill:#e0e0e0"></path><path d="M512.65,351.52c0,.18,5.6.33,12.51.33s12.5-.15,12.5-.33-5.59-.33-12.5-.33S512.65,351.34,512.65,351.52Z" style="fill:#e0e0e0"></path><rect x="572.91" y="378.73" width="24.81" height="47.82" transform="translate(1170.63 805.27) rotate(180)" style="fill:#fff"></rect><path d="M584.62,426.54c.18,0,.33-10.7.33-23.9s-.15-23.91-.33-23.91-.34,10.7-.34,23.91S584.43,426.54,584.62,426.54Z" style="fill:#e0e0e0"></path><path d="M572.91,395.34c0,.18,5.55.33,12.4.33s12.41-.15,12.41-.33-5.55-.33-12.41-.33S572.91,395.16,572.91,395.34Z" style="fill:#e0e0e0"></path><path d="M572.78,412.44c0,.18,5.6.33,12.51.33s12.51-.15,12.51-.33-5.6-.33-12.51-.33S572.78,412.26,572.78,412.44Z" style="fill:#e0e0e0"></path><rect x="512.78" y="380.78" width="24.81" height="47.82" transform="translate(1050.37 809.37) rotate(180)" style="fill:#fff"></rect><path d="M524.49,428.59c.18,0,.33-10.7.33-23.9s-.15-23.91-.33-23.91-.34,10.7-.34,23.91S524.3,428.59,524.49,428.59Z" style="fill:#e0e0e0"></path><path d="M512.78,397.39c0,.18,5.55.33,12.4.33s12.41-.15,12.41-.33-5.55-.33-12.41-.33S512.78,397.21,512.78,397.39Z" style="fill:#e0e0e0"></path><path d="M512.65,414.49c0,.18,5.6.33,12.51.33s12.5-.15,12.5-.33-5.59-.33-12.5-.33S512.65,414.31,512.65,414.49Z" style="fill:#e0e0e0"></path><rect x="642.34" y="249.52" width="47.39" height="200.42" transform="translate(1332.07 699.46) rotate(180)" style="fill:#ebebeb"></rect><rect x="666.49" y="263.57" width="14.4" height="27.76" transform="translate(1347.39 554.9) rotate(180)" style="fill:#fff"></rect><path d="M673.29,291.33c.11,0,.19-6.22.19-13.88s-.08-13.88-.19-13.88-.19,6.21-.19,13.88S673.18,291.33,673.29,291.33Z" style="fill:#e0e0e0"></path><path d="M666.49,273.21a136.71,136.71,0,0,0,14.41,0,136.71,136.71,0,0,0-14.41,0Z" style="fill:#e0e0e0"></path><path d="M666.42,283.14a138.8,138.8,0,0,0,14.52,0,138.8,138.8,0,0,0-14.52,0Z" style="fill:#e0e0e0"></path><rect x="666.49" y="299.83" width="14.4" height="27.76" transform="translate(1347.39 627.41) rotate(180)" style="fill:#fff"></rect><path d="M673.29,327.58c.11,0,.19-6.21.19-13.87s-.08-13.88-.19-13.88-.19,6.21-.19,13.88S673.18,327.58,673.29,327.58Z" style="fill:#e0e0e0"></path><path d="M666.49,309.47a136.71,136.71,0,0,0,14.41,0,136.71,136.71,0,0,0-14.41,0Z" style="fill:#e0e0e0"></path><path d="M666.42,319.4a138.8,138.8,0,0,0,14.52,0,131.87,131.87,0,0,0-14.52,0Z" style="fill:#e0e0e0"></path><rect x="666.49" y="336.08" width="14.4" height="27.76" transform="translate(1347.39 699.93) rotate(180)" style="fill:#fff"></rect><path d="M673.29,363.84c.11,0,.19-6.21.19-13.88s-.08-13.88-.19-13.88-.19,6.22-.19,13.88S673.18,363.84,673.29,363.84Z" style="fill:#e0e0e0"></path><path d="M666.49,345.73a136.71,136.71,0,0,0,14.41,0,136.71,136.71,0,0,0-14.41,0Z" style="fill:#e0e0e0"></path><path d="M666.42,355.66a138.8,138.8,0,0,0,14.52,0,131.87,131.87,0,0,0-14.52,0Z" style="fill:#e0e0e0"></path><rect x="666.49" y="372.34" width="14.4" height="27.76" transform="translate(1347.39 772.44) rotate(180)" style="fill:#fff"></rect><path d="M673.29,400.1c.11,0,.19-6.21.19-13.88s-.08-13.88-.19-13.88-.19,6.22-.19,13.88S673.18,400.1,673.29,400.1Z" style="fill:#e0e0e0"></path><path d="M666.49,382a136.71,136.71,0,0,0,14.41,0,129.88,129.88,0,0,0-14.41,0Z" style="fill:#e0e0e0"></path><path d="M666.42,391.91a131.87,131.87,0,0,0,14.52,0,138.8,138.8,0,0,0-14.52,0Z" style="fill:#e0e0e0"></path><rect x="622.18" y="249.52" width="34.53" height="200.42" transform="translate(1278.9 699.46) rotate(180)" style="fill:#e0e0e0"></rect><rect x="631.59" y="263.57" width="14.4" height="27.76" transform="translate(1277.58 554.9) rotate(180)" style="fill:#fff"></rect><path d="M638.38,291.33c.11,0,.2-6.22.2-13.88s-.09-13.88-.2-13.88-.19,6.21-.19,13.88S638.28,291.33,638.38,291.33Z" style="fill:#e0e0e0"></path><path d="M631.59,273.21a136.52,136.52,0,0,0,14.4,0,136.52,136.52,0,0,0-14.4,0Z" style="fill:#e0e0e0"></path><path d="M631.51,283.14a138.8,138.8,0,0,0,14.52,0,138.8,138.8,0,0,0-14.52,0Z" style="fill:#e0e0e0"></path><rect x="631.59" y="300.12" width="14.4" height="27.76" transform="translate(1277.58 628.01) rotate(180)" style="fill:#fff"></rect><path d="M638.38,327.88c.11,0,.2-6.21.2-13.88s-.09-13.88-.2-13.88-.19,6.22-.19,13.88S638.28,327.88,638.38,327.88Z" style="fill:#e0e0e0"></path><path d="M631.59,309.77a136.52,136.52,0,0,0,14.4,0,136.52,136.52,0,0,0-14.4,0Z" style="fill:#e0e0e0"></path><path d="M631.51,319.69a131.87,131.87,0,0,0,14.52,0,138.8,138.8,0,0,0-14.52,0Z" style="fill:#e0e0e0"></path><rect x="631.59" y="336.68" width="14.4" height="27.76" transform="translate(1277.58 701.12) rotate(180)" style="fill:#fff"></rect><path d="M638.38,364.44c.11,0,.2-6.22.2-13.88s-.09-13.88-.2-13.88-.19,6.21-.19,13.88S638.28,364.44,638.38,364.44Z" style="fill:#e0e0e0"></path><path d="M631.59,346.32a129.7,129.7,0,0,0,14.4,0,136.52,136.52,0,0,0-14.4,0Z" style="fill:#e0e0e0"></path><path d="M631.51,356.25a138.8,138.8,0,0,0,14.52,0,138.8,138.8,0,0,0-14.52,0Z" style="fill:#e0e0e0"></path><rect x="631.59" y="373.23" width="14.4" height="27.76" transform="translate(1277.58 774.23) rotate(180)" style="fill:#fff"></rect><path d="M638.38,401c.11,0,.2-6.21.2-13.88s-.09-13.88-.2-13.88-.19,6.22-.19,13.88S638.28,401,638.38,401Z" style="fill:#e0e0e0"></path><path d="M631.59,382.88a136.52,136.52,0,0,0,14.4,0,136.52,136.52,0,0,0-14.4,0Z" style="fill:#e0e0e0"></path><path d="M631.51,392.81a138.8,138.8,0,0,0,14.52,0,131.87,131.87,0,0,0-14.52,0Z" style="fill:#e0e0e0"></path><rect x="666.49" y="408.6" width="14.4" height="27.76" transform="translate(1347.39 844.96) rotate(180)" style="fill:#fff"></rect><path d="M673.29,436.36c.11,0,.19-6.22.19-13.88s-.08-13.88-.19-13.88-.19,6.21-.19,13.88S673.18,436.36,673.29,436.36Z" style="fill:#e0e0e0"></path><path d="M666.49,418.24a129.88,129.88,0,0,0,14.41,0,136.71,136.71,0,0,0-14.41,0Z" style="fill:#e0e0e0"></path><path d="M666.42,428.17a138.8,138.8,0,0,0,14.52,0,138.8,138.8,0,0,0-14.52,0Z" style="fill:#e0e0e0"></path><rect x="631.59" y="409.79" width="14.4" height="27.76" transform="translate(1277.58 847.34) rotate(180)" style="fill:#fff"></rect><path d="M638.38,437.55c.11,0,.2-6.22.2-13.88s-.09-13.88-.2-13.88-.19,6.21-.19,13.88S638.28,437.55,638.38,437.55Z" style="fill:#e0e0e0"></path><path d="M631.59,419.43a129.7,129.7,0,0,0,14.4,0,136.52,136.52,0,0,0-14.4,0Z" style="fill:#e0e0e0"></path><path d="M631.51,429.36a138.8,138.8,0,0,0,14.52,0,138.8,138.8,0,0,0-14.52,0Z" style="fill:#e0e0e0"></path><rect x="25.36" y="243.64" width="49.35" height="208.71" style="fill:#ebebeb"></rect><rect x="34.56" y="258.27" width="15" height="28.91" style="fill:#fff"></rect><path d="M42.48,287.18c-.11,0-.2-6.48-.2-14.46s.09-14.45.2-14.45.2,6.47.2,14.45S42.59,287.18,42.48,287.18Z" style="fill:#e0e0e0"></path><path d="M49.56,268.31a70.67,70.67,0,0,1-7.5.2,70.67,70.67,0,0,1-7.5-.2,70.67,70.67,0,0,1,7.5-.2A70.67,70.67,0,0,1,49.56,268.31Z" style="fill:#e0e0e0"></path><path d="M49.64,278.65a71.85,71.85,0,0,1-7.56.2,71.69,71.69,0,0,1-7.56-.2,71.69,71.69,0,0,1,7.56-.2A71.85,71.85,0,0,1,49.64,278.65Z" style="fill:#e0e0e0"></path><rect x="34.56" y="296.03" width="15" height="28.91" style="fill:#fff"></rect><path d="M42.48,324.93c-.11,0-.2-6.47-.2-14.45s.09-14.45.2-14.45.2,6.47.2,14.45S42.59,324.93,42.48,324.93Z" style="fill:#e0e0e0"></path><path d="M49.56,306.07a70.67,70.67,0,0,1-7.5.2,70.67,70.67,0,0,1-7.5-.2,70.67,70.67,0,0,1,7.5-.2A70.67,70.67,0,0,1,49.56,306.07Z" style="fill:#e0e0e0"></path><path d="M49.64,316.41a71.85,71.85,0,0,1-7.56.2,71.69,71.69,0,0,1-7.56-.2,71.69,71.69,0,0,1,7.56-.2A71.85,71.85,0,0,1,49.64,316.41Z" style="fill:#e0e0e0"></path><rect x="34.56" y="333.78" width="15" height="28.91" style="fill:#fff"></rect><path d="M42.48,362.69c-.11,0-.2-6.47-.2-14.45s.09-14.46.2-14.46.2,6.47.2,14.46S42.59,362.69,42.48,362.69Z" style="fill:#e0e0e0"></path><path d="M49.56,343.83a70.67,70.67,0,0,1-7.5.2,70.67,70.67,0,0,1-7.5-.2,70.67,70.67,0,0,1,7.5-.2A70.67,70.67,0,0,1,49.56,343.83Z" style="fill:#e0e0e0"></path><path d="M49.64,354.16a71.85,71.85,0,0,1-7.56.2,71.69,71.69,0,0,1-7.56-.2,71.69,71.69,0,0,1,7.56-.2A71.85,71.85,0,0,1,49.64,354.16Z" style="fill:#e0e0e0"></path><rect x="34.56" y="371.54" width="15" height="28.91" style="fill:#fff"></rect><path d="M42.48,400.45c-.11,0-.2-6.47-.2-14.46s.09-14.45.2-14.45.2,6.47.2,14.45S42.59,400.45,42.48,400.45Z" style="fill:#e0e0e0"></path><path d="M49.56,381.58a70.67,70.67,0,0,1-7.5.2,70.67,70.67,0,0,1-7.5-.2,70.67,70.67,0,0,1,7.5-.2A70.67,70.67,0,0,1,49.56,381.58Z" style="fill:#e0e0e0"></path><path d="M49.64,391.92a71.85,71.85,0,0,1-7.56.2,71.69,71.69,0,0,1-7.56-.2,71.69,71.69,0,0,1,7.56-.2A71.85,71.85,0,0,1,49.64,391.92Z" style="fill:#e0e0e0"></path><rect x="59.74" y="243.64" width="35.96" height="208.71" style="fill:#e0e0e0"></rect><rect x="70.91" y="258.27" width="15" height="28.91" style="fill:#fff"></rect><path d="M78.83,287.18c-.11,0-.2-6.48-.2-14.46s.09-14.45.2-14.45.2,6.47.2,14.45S78.94,287.18,78.83,287.18Z" style="fill:#e0e0e0"></path><path d="M85.91,268.31a70.67,70.67,0,0,1-7.5.2,70.67,70.67,0,0,1-7.5-.2,70.67,70.67,0,0,1,7.5-.2A70.67,70.67,0,0,1,85.91,268.31Z" style="fill:#e0e0e0"></path><path d="M86,278.65a71.85,71.85,0,0,1-7.56.2,71.69,71.69,0,0,1-7.56-.2,71.69,71.69,0,0,1,7.56-.2A71.85,71.85,0,0,1,86,278.65Z" style="fill:#e0e0e0"></path><rect x="70.91" y="296.34" width="15" height="28.91" style="fill:#fff"></rect><path d="M78.83,325.24c-.11,0-.2-6.47-.2-14.45s.09-14.45.2-14.45.2,6.47.2,14.45S78.94,325.24,78.83,325.24Z" style="fill:#e0e0e0"></path><path d="M85.91,306.38a70.67,70.67,0,0,1-7.5.2,70.67,70.67,0,0,1-7.5-.2,70.67,70.67,0,0,1,7.5-.2A70.67,70.67,0,0,1,85.91,306.38Z" style="fill:#e0e0e0"></path><path d="M86,316.72a71.85,71.85,0,0,1-7.56.2,71.69,71.69,0,0,1-7.56-.2,71.69,71.69,0,0,1,7.56-.2A71.85,71.85,0,0,1,86,316.72Z" style="fill:#e0e0e0"></path><rect x="70.91" y="334.4" width="15" height="28.91" style="fill:#fff"></rect><path d="M78.83,363.31c-.11,0-.2-6.47-.2-14.45s.09-14.46.2-14.46.2,6.47.2,14.46S78.94,363.31,78.83,363.31Z" style="fill:#e0e0e0"></path><path d="M85.91,344.45a70.67,70.67,0,0,1-7.5.2,70.67,70.67,0,0,1-7.5-.2,70.67,70.67,0,0,1,7.5-.2A70.67,70.67,0,0,1,85.91,344.45Z" style="fill:#e0e0e0"></path><path d="M86,354.78a71.85,71.85,0,0,1-7.56.2,71.69,71.69,0,0,1-7.56-.2,71.69,71.69,0,0,1,7.56-.2A71.85,71.85,0,0,1,86,354.78Z" style="fill:#e0e0e0"></path><rect x="70.91" y="372.47" width="15" height="28.91" style="fill:#fff"></rect><path d="M78.83,401.38c-.11,0-.2-6.47-.2-14.46s.09-14.45.2-14.45.2,6.47.2,14.45S78.94,401.38,78.83,401.38Z" style="fill:#e0e0e0"></path><path d="M85.91,382.51a70.67,70.67,0,0,1-7.5.2,70.67,70.67,0,0,1-7.5-.2,70.67,70.67,0,0,1,7.5-.2A70.67,70.67,0,0,1,85.91,382.51Z" style="fill:#e0e0e0"></path><path d="M86,392.85a71.85,71.85,0,0,1-7.56.2,71.69,71.69,0,0,1-7.56-.2,71.69,71.69,0,0,1,7.56-.2A71.85,71.85,0,0,1,86,392.85Z" style="fill:#e0e0e0"></path><rect x="34.56" y="409.3" width="15" height="28.91" style="fill:#fff"></rect><path d="M42.48,438.2c-.11,0-.2-6.47-.2-14.45s.09-14.45.2-14.45.2,6.47.2,14.45S42.59,438.2,42.48,438.2Z" style="fill:#e0e0e0"></path><path d="M49.56,419.34a70.67,70.67,0,0,1-7.5.2,70.67,70.67,0,0,1-7.5-.2,70.67,70.67,0,0,1,7.5-.2A70.67,70.67,0,0,1,49.56,419.34Z" style="fill:#e0e0e0"></path><path d="M49.64,429.68a71.85,71.85,0,0,1-7.56.2,71.69,71.69,0,0,1-7.56-.2,71.69,71.69,0,0,1,7.56-.2A71.85,71.85,0,0,1,49.64,429.68Z" style="fill:#e0e0e0"></path><rect x="70.91" y="410.54" width="15" height="28.91" style="fill:#fff"></rect><path d="M78.83,439.44c-.11,0-.2-6.47-.2-14.45s.09-14.45.2-14.45S79,417,79,425,78.94,439.44,78.83,439.44Z" style="fill:#e0e0e0"></path><path d="M85.91,420.58a70.67,70.67,0,0,1-7.5.2,70.67,70.67,0,0,1-7.5-.2,70.67,70.67,0,0,1,7.5-.2A70.67,70.67,0,0,1,85.91,420.58Z" style="fill:#e0e0e0"></path><path d="M86,430.92a71.85,71.85,0,0,1-7.56.2,71.69,71.69,0,0,1-7.56-.2,71.69,71.69,0,0,1,7.56-.2A71.85,71.85,0,0,1,86,430.92Z" style="fill:#e0e0e0"></path></g><g id="freepik--Floor--inject-4"><path d="M703.15,449.47c0,.15-151,.26-337.13.26s-337.17-.11-337.17-.26,150.93-.26,337.17-.26S703.15,449.33,703.15,449.47Z" style="fill:#263238"></path></g><g id="freepik--Ambulance--inject-4"><rect x="102.31" y="323.83" width="581.82" height="70.1" style="fill:#455a64"></rect><path d="M98.23,129.13A28.79,28.79,0,0,0,70.37,149c-.15.48-.3,1-.44,1.47-5.51,20-16.54,76.5-13.78,140.59s10.34,97.86,10.34,97.86l63.4,8.27s4.16-53,53.09-53c61.36,0,60.45,60.11,60.45,60.11l326.65,5.51s.85-34.08,22.91-54.09c13.16-11.93,29.16-11,38.6-10.71,17,.56,38.78,11.21,44.39,33.62,4.7,18.82,6.62,32.33,6.62,32.33l27-5.51L701.9,324.1l-3.45-9S568.89,189,548.9,173.86s-43.41-42.73-79.94-42C435.52,132.45,146.83,129.62,98.23,129.13Z" style="fill:#e0e0e0"></path><path d="M53.32,329.47s.4,49,5.58,62.58c0,0,63.46,6.22,71,5.1,0,0,3.09-28.39,21.4-42.68l-17.06-17.83Z" style="fill:#263238"></path><polygon points="252.41 368.76 258.71 391.49 556.74 397.28 560.75 371.79 252.41 368.76" style="fill:#263238"></polygon><path d="M663,357.15l10.22-33.32h30.07s14.45,5,17.69,13.85,4.72,39.8,1.48,53.07L716,404.9l-33.35,7s-2-12.65-4.32-23.64C675.61,375.75,673,366.59,663,357.15Z" style="fill:#263238"></path><path d="M495.39,188.51c-.29,1.49,2.69,65.53,3.88,71.79s6.25,23.24,42.6,25,87.28,1.79,87.28,1.79L626,267.7s-43.88-47.66-54.46-57C563.75,203.76,560.34,196,541,193S495.39,188.51,495.39,188.51Z" style="fill:#455a64"></path><path d="M495.39,188.51s.28,0,.8,0l2.35.13c2.07.12,5.12.31,9.07.6,7.88.63,19.37,1.49,33.61,3.59a56.7,56.7,0,0,1,11,2.76,33.27,33.27,0,0,1,10.59,6.28c3.25,2.81,6.09,6.21,9.53,9.21S579,217.56,582.4,221c13.53,13.89,28.22,29.64,43.8,46.5l0,.05,0,.08c1,6.17,2.06,12.74,3.14,19.41l.05.3h-.31l-16-.08c-13.58-.11-26.84-.3-39.64-.61q-9.6-.24-18.84-.57l-9.13-.38c-1.5-.08-3-.11-4.49-.23l-4.43-.35a76.12,76.12,0,0,1-16.85-3.48,36.27,36.27,0,0,1-13.85-8.34A24.35,24.35,0,0,1,499,260c-.6-4.85-.81-9.5-1.12-13.94-1.07-17.76-1.69-32.15-2.11-42.09-.19-5-.33-8.83-.39-11.45,0-1.3,0-2.3,0-3s0-1,0-1,0,.35,0,1,.06,1.68.1,3c.12,2.63.28,6.48.5,11.44.47,9.94,1.15,24.32,2.26,42.08.32,4.43.55,9.1,1.16,13.89A23.92,23.92,0,0,0,506.19,273a35.66,35.66,0,0,0,13.7,8.21,74.53,74.53,0,0,0,16.75,3.44l4.41.35c1.48.12,3,.15,4.48.23l9.13.36q9.23.33,18.84.56c12.79.3,26,.49,39.62.6l16,.08-.25.3c-1.08-6.67-2.14-13.24-3.14-19.41l.07.13c-15.58-16.85-30.25-32.62-43.75-46.53-3.39-3.46-6.68-6.84-10-9.93s-6.31-6.44-9.51-9.22A33.13,33.13,0,0,0,552.08,196a56.38,56.38,0,0,0-10.91-2.77c-14.21-2.14-25.7-3.05-33.58-3.73l-9.06-.7-2.34-.17Z" style="fill:#263238"></path><path d="M551.81,195.64c.18,1.69,5.56,90.32,5.56,90.32h8.86l-4-84.28A35.59,35.59,0,0,0,551.81,195.64Z" style="fill:#263238"></path><path d="M617.33,256.68c.3.44,7.24,8.31,12.22,15.4a27.2,27.2,0,0,1,4.89,16.09h-21Z" style="fill:#263238"></path><path d="M618,315.07l-544.79-6.9.26-32.55,426.9,4.7,16.42,9.29c7.4,3.52,17.25,5.07,25.43,5.54s17.61.06,24.89.22l50.35,1Z" style="fill:#3098F3"></path><rect x="488.04" y="283.82" width="17.34" height="27.6" rx="7.43" style="fill:#263238"></rect><rect x="443.91" y="282.76" width="17.34" height="27.6" rx="7.43" style="fill:#263238"></rect><rect x="83.73" y="263.9" width="191.49" height="7.44" style="fill:#ebebeb"></rect><path d="M275.22,271.33s0-.59,0-1.82,0-3.08,0-5.61l.07.06c-21.9.11-99.39.2-191.48.2h0l.26-.26v7.43l-.26-.26,135.59.11,40.89.08,11.11,0,2.9,0h1s-.32,0-1,0l-2.87,0-11.05,0-40.82.08-135.79.1h-.26v-8h.27c92.09,0,169.58.09,191.48.2h.07v.07c0,2.55,0,4.41,0,5.65S275.22,271.33,275.22,271.33Z" style="fill:#263238"></path><rect x="78.23" y="263.57" width="8.09" height="8.09" style="fill:#263238"></rect><rect x="263.76" y="263.57" width="12.74" height="8.09" style="fill:#263238"></rect><path d="M478.87,179.72c0,.15-90.37,0-201.83-.25s-201.85-.62-201.85-.77,90.36,0,201.85.25S478.87,179.58,478.87,179.72Z" style="fill:#263238"></path><polygon points="56.46 243.02 73.18 261.06 73.18 238.08 57.91 222.95 56.46 243.02" style="fill:#3098F3"></polygon><path d="M61,196.29l12.18,10.17V186.69l-8.36-9.14S60.21,191.31,61,196.29Z" style="fill:#3098F3"></path><path d="M56,257.3l17.15,24.24v49.69l-14.55-1.29s-2.08-22.57-2.48-37.48S56,257.3,56,257.3Z" style="fill:#3098F3"></path><polygon points="56.46 279.1 62.67 285.75 64.6 320.37 57.86 320.37 56.46 279.1" style="fill:#e0e0e0"></polygon><polygon points="618.46 330.26 73.18 328.02 73.18 317.4 618.16 321.26 618.46 330.26" style="fill:#3098F3"></polygon><rect x="114.24" y="111.39" width="18.08" height="18.08" style="fill:#455a64"></rect><rect x="432.49" y="112.4" width="39.28" height="19.43" rx="8.33" style="fill:#455a64"></rect><path d="M285.79,184.88l-.75,0-2.21,0-8.48,0-31.18.08-102.89.08-60.37,0,.23-.24c.17,25.16.32,46.44.42,61.46,0,7.48.06,13.41.08,17.47v5.83a3,3,0,0,1,0,.4s0-.13,0-.4l0-1.19-.07-4.64c0-4.06-.12-10-.21-17.47-.15-15-.36-36.3-.61-61.45v-.24h.24l60.37,0,102.89.08,31.18.08,8.48,0,2.21,0Z" style="fill:#263238"></path><rect x="171.61" y="188.99" width="19.59" height="72.07" style="fill:#3098F3"></rect><rect x="172.85" y="191.65" width="19.59" height="72.07" transform="translate(76.79 499.71) rotate(-120)" style="fill:#3098F3"></rect><rect x="171.61" y="189.51" width="19.59" height="72.07" transform="translate(469.59 198.49) rotate(123.45)" style="fill:#3098F3"></rect><polygon points="468.89 267.61 282.86 267.14 281.11 184.88 468.89 184.88 468.89 267.61" style="fill:#263238"></polygon><rect x="591.96" y="240.11" width="26.73" height="58.48" rx="11.46" style="fill:#263238"></rect><path d="M607.23,298.59s.53,0,1.52-.16a11.09,11.09,0,0,0,4.09-1.43,11.39,11.39,0,0,0,5.65-9.09c.07-1.52,0-3.16,0-4.86,0-6.82,0-14.94-.06-23.95q0-3.37,0-6.92a11.44,11.44,0,0,0-1.83-6.72A11.19,11.19,0,0,0,611,241a11,11,0,0,0-3.66-.64h-3.88a11.35,11.35,0,0,0-7,2.44,11.2,11.2,0,0,0-3.89,6,13.29,13.29,0,0,0-.35,3.56V256q0,3.54,0,6.92c0,9,0,17.13-.06,24a11.35,11.35,0,0,0,9.2,11.42,28.25,28.25,0,0,0,4.36.25l1.14,0a1.65,1.65,0,0,1,.39,0,1.93,1.93,0,0,1-.39,0l-1.14,0a25.38,25.38,0,0,1-4.4-.15,11.58,11.58,0,0,1-9.53-11.62c0-6.83,0-14.95,0-24,0-2.25,0-4.56,0-6.92v-3.58a13.59,13.59,0,0,1,.35-3.68,11.72,11.72,0,0,1,11.36-8.88h3.88a11.83,11.83,0,0,1,3.84.67,11.71,11.71,0,0,1,5.9,4.65,12,12,0,0,1,1.9,7c0,2.36,0,4.67,0,6.92,0,9,0,17.13,0,23.95,0,1.71,0,3.32-.06,4.88a11.6,11.6,0,0,1-5.88,9.25,10.58,10.58,0,0,1-4.18,1.35A8.4,8.4,0,0,1,607.23,298.59Z" style="fill:#455a64"></path><circle cx="185.08" cy="399.41" r="50.45" transform="translate(-18.9 9.31) rotate(-2.74)" style="fill:#263238"></circle><path d="M134.64,398.56s0,.08,0,.13a50.45,50.45,0,0,0,100.89,1.45s0-.08,0-.13Z" style="fill:#263238"></path><path d="M149.66,398.9A35.42,35.42,0,1,0,185.59,364,35.42,35.42,0,0,0,149.66,398.9Z" style="fill:#fafafa"></path><path d="M185.59,364a35.42,35.42,0,0,0-35.93,34.9l70.83,1A35.42,35.42,0,0,0,185.59,364Z" style="fill:#e0e0e0"></path><path d="M163.5,399.1a21.58,21.58,0,1,0,21.89-21.26A21.58,21.58,0,0,0,163.5,399.1Z" style="fill:#263238"></path><circle cx="626.18" cy="399.41" r="50.45" transform="translate(203.74 1010.3) rotate(-87.87)" style="fill:#263238"></circle><path d="M575.74,398.56a.62.62,0,0,1,0,.13,50.45,50.45,0,0,0,100.89,1.45s0-.08,0-.13Z" style="fill:#263238"></path><path d="M590.76,398.9A35.42,35.42,0,1,0,626.69,364,35.42,35.42,0,0,0,590.76,398.9Z" style="fill:#fafafa"></path><path d="M626.69,364a35.43,35.43,0,0,0-35.93,34.9l70.83,1A35.42,35.42,0,0,0,626.69,364Z" style="fill:#e0e0e0"></path><path d="M604.6,399.1a21.58,21.58,0,1,0,21.89-21.26A21.58,21.58,0,0,0,604.6,399.1Z" style="fill:#263238"></path><path d="M252.41,368.76a1.47,1.47,0,0,1-.15-.33c-.09-.24-.22-.57-.39-1l-.62-1.61-.93-2.16c-.72-1.61-1.67-3.55-2.86-5.76a81.25,81.25,0,0,0-4.57-7.2,61.9,61.9,0,0,0-15.69-15.47A69.68,69.68,0,0,0,202,325.63a93.14,93.14,0,0,0-27.05-.84,125.2,125.2,0,0,0-21.71,4.48c-6.06,1.81-10.85,3.62-14.14,4.92l-3.78,1.52-1,.4a1.55,1.55,0,0,1-.34.12,1.79,1.79,0,0,1,.32-.17l1-.44c.84-.39,2.11-.93,3.74-1.62,3.27-1.36,8.05-3.22,14.11-5.08a121.69,121.69,0,0,1,21.77-4.61,92.74,92.74,0,0,1,27.2.81,69.64,69.64,0,0,1,25.35,9.73,61.86,61.86,0,0,1,15.72,15.66,74.78,74.78,0,0,1,4.52,7.27c1.18,2.23,2.1,4.19,2.8,5.82.33.82.63,1.55.88,2.19s.43,1.18.58,1.62.26.75.34,1A1.3,1.3,0,0,1,252.41,368.76Z" style="fill:#263238"></path><path d="M699.3,349s-.14-.09-.4-.29l-1.14-.9c-.5-.39-1.1-.91-1.86-1.45l-2.62-1.86a106,106,0,0,0-18-9.69,122.17,122.17,0,0,0-29.09-8.5c-11.28-1.91-24.06-1.19-36.89,1.84A77,77,0,0,0,600,331a66,66,0,0,0-8.62,3.9,58.07,58.07,0,0,0-14.23,10.75,63.76,63.76,0,0,0-9.63,13,81.79,81.79,0,0,0-5.82,12.86,101.78,101.78,0,0,0-4.8,19.89c-.15,1.19-.29,2.26-.41,3.19s-.18,1.7-.24,2.34-.12,1.1-.15,1.45-.07.49-.07.49a4.7,4.7,0,0,1,0-.5c0-.35.06-.83.1-1.45s.12-1.43.19-2.35.23-2,.37-3.2a99.49,99.49,0,0,1,4.65-20,81.34,81.34,0,0,1,5.8-12.95,63.68,63.68,0,0,1,9.66-13.1,57.93,57.93,0,0,1,14.33-10.86,66.43,66.43,0,0,1,8.68-3.95,78,78,0,0,1,9.39-2.87c12.89-3,25.74-3.75,37.08-1.8a120.8,120.8,0,0,1,29.16,8.63,103.29,103.29,0,0,1,18,9.86l2.61,1.91c.75.55,1.33,1.09,1.83,1.49l1.11.94A4.22,4.22,0,0,1,699.3,349Z" style="fill:#263238"></path><path d="M73.18,331.68c-.14,0-.26-42.9-.26-95.81s.12-95.82.26-95.82.26,42.89.26,95.82S73.33,331.68,73.18,331.68Z" style="fill:#263238"></path><path d="M618.22,249.94s-.18-.18-.53-.56l-1.51-1.69-5.91-6.59c-5.21-5.73-12.77-14.22-22.8-24.58a171.05,171.05,0,0,0-17.71-16,95.66,95.66,0,0,0-24.35-13.74c-1.16-.47-2.36-.85-3.56-1.27s-2.45-.71-3.68-1.07c-2.5-.61-5.07-1.13-7.7-1.53-5.25-.82-10.7-1.39-16.3-1.81-11.19-.82-23-1.2-35.3-1.17l.23-.24c1,22.06,2,46,2.94,71.23q.3,9.48.62,19.19c.18,6.48.37,13,.32,19.66,0,1.66.06,3.3.11,5s.27,3.31.41,5c.36,3.32.74,6.65,1.2,10,.9,6.68,1.94,13.41,3,20.18,2.13,13.14,4.4,26.07,6.59,38.76,1.09,6.35,2.18,12.63,3.09,18.88.24,1.55.41,3.13.57,4.7a18.69,18.69,0,0,0,.85,4.53,8,8,0,0,0,2.41,3.74,5.33,5.33,0,0,0,4.13,1.11h.06l56,.45-.23.18q3.57-13.08,6.95-25.43a58.82,58.82,0,0,1,4.66-11.72,42.67,42.67,0,0,1,3.23-5.23l1.81-2.45c.31-.4.59-.81.91-1.2l1-1.11a52.52,52.52,0,0,1,18.43-13.59c1.66-.8,3.4-1.38,5.09-2l2.58-.79c.85-.27,1.72-.45,2.57-.67a50.64,50.64,0,0,1,10.24-1.41l-.18.19c-.92-27-1.5-48.78-1.6-63.77,0-7.49,0-13.29.32-17.21a24.52,24.52,0,0,1,.61-4.42c.12-.48.21-.85.28-1.1s.1-.38.1-.38-.09.51-.33,1.49a26.5,26.5,0,0,0-.56,4.41c-.26,3.92-.29,9.72-.22,17.21.16,15,.79,36.72,1.76,63.75V337h-.19a49.31,49.31,0,0,0-10.15,1.42c-.85.22-1.71.4-2.56.66l-2.56.79c-1.67.63-3.4,1.21-5,2a52.2,52.2,0,0,0-18.27,13.5l-1,1.11c-.32.38-.6.8-.9,1.2l-1.8,2.42a42.11,42.11,0,0,0-3.2,5.2,58.45,58.45,0,0,0-4.6,11.63q-3.37,12.35-6.94,25.43l0,.18h-.19l-56-.42h.06a5.83,5.83,0,0,1-4.56-1.2,8.54,8.54,0,0,1-2.57-4,19.47,19.47,0,0,1-.88-4.66c-.16-1.55-.32-3.1-.57-4.66-.91-6.23-2-12.52-3.09-18.86-2.19-12.69-4.47-25.62-6.6-38.77-1.09-6.77-2.14-13.5-3-20.19-.47-3.34-.84-6.69-1.21-10-.13-1.67-.27-3.34-.4-5s-.12-3.34-.11-5c0-6.6-.15-13.16-.32-19.63s-.42-12.87-.62-19.19c-.9-25.26-1.91-49.17-2.89-71.23v-.23h.24c12.31,0,24.12.38,35.34,1.21,5.6.43,11,1,16.32,1.84,2.64.4,5.22.92,7.74,1.54,1.24.37,2.5.66,3.7,1.09s2.41.8,3.58,1.28A95.84,95.84,0,0,1,570,200.29a168.16,168.16,0,0,1,17.71,16c10,10.4,17.54,18.91,22.71,24.68l5.86,6.63c.66.75,1.15,1.33,1.49,1.72Z" style="fill:#263238"></path><path d="M98.23,129.13l189.26,1.59,97.87.71,55.1.26c9.51,0,19.17,0,29-.08a71.51,71.51,0,0,1,29.16,5.92c9.35,4,18,9.73,26.16,16.14s15.93,13.61,24.39,20.1c8.34,6.71,16.21,14.12,24.28,21.51s16.11,15,24.25,22.69c32.53,30.78,66.2,63.25,101,97l0,0,0,.05,3.44,9v.06c2.43,25.71,5,53.3,7.69,81.33l0,.23-.22.05-27,5.5-.27.06,0-.28c-.69-5-1.64-10-2.66-15.07s-2.16-10.08-3.43-15.11a48.19,48.19,0,0,0-6.09-14.28A43.9,43.9,0,0,0,659.55,355c-8.43-6.37-19.08-9.56-29.75-9.88a79.94,79.94,0,0,0-16,1,38.86,38.86,0,0,0-14.94,5.78,59,59,0,0,0-12.37,11.29,55.91,55.91,0,0,0-8.36,14.4,103.74,103.74,0,0,0-5,15.88,128.38,128.38,0,0,0-2.74,16.32l0,.25h-.24l-326.64-5.53h-.23v-.24A73.55,73.55,0,0,0,238.83,381a57.65,57.65,0,0,0-12-19.9,53.51,53.51,0,0,0-8.81-7.4,56.46,56.46,0,0,0-10.18-5.13,68.91,68.91,0,0,0-22-4.06l-2.78-.09-2.78.09c-1.85,0-3.68.29-5.51.46-.91.1-1.81.31-2.71.45a27.36,27.36,0,0,0-2.69.57l-2.65.69-2.58.89a45.35,45.35,0,0,0-9.65,4.89,48,48,0,0,0-8.13,7,58.35,58.35,0,0,0-11.12,17.83,74.92,74.92,0,0,0-5.14,19.94l0,.22-.21,0-63.4-8.29h-.13l0-.13c-2.17-10.55-3.64-20.94-4.94-31.09s-2.25-20.07-3-29.72c-.43-4.83-.73-9.59-1.08-14.28s-.6-9.32-.81-13.88-.47-9-.57-13.46c-.07-2.2-.13-4.39-.2-6.57s0-4.32,0-6.46c-.09-17.08.69-33,1.93-47.56s3-27.85,4.88-39.72,4.06-22.34,6.28-31.33c.6-2.24,1.09-4.41,1.79-6.44l.54-1.49c.19-.49.43-.95.64-1.42a27.78,27.78,0,0,1,1.41-2.65A28.55,28.55,0,0,1,80.19,135a29.35,29.35,0,0,1,13.15-5.57,28.59,28.59,0,0,1,3.65-.31l1.24,0-1.24.05a28.15,28.15,0,0,0-3.64.35,29.41,29.41,0,0,0-13.09,5.59,28.54,28.54,0,0,0-7.07,7.8c-.46.86-1,1.7-1.4,2.64-.2.47-.44.93-.63,1.41s-.35,1-.53,1.49c-.7,2-1.18,4.19-1.78,6.43-2.2,9-4.31,19.46-6.22,31.32s-3.6,25.14-4.84,39.71-2,30.47-1.88,47.54c0,2.13,0,4.29.06,6.46s.13,4.36.2,6.56c.09,4.42.36,8.9.57,13.45s.55,9.18.82,13.87.66,9.46,1.09,14.28c.81,9.65,1.79,19.56,3.07,29.7s2.78,20.54,5,31.06l-.16-.15L129.92,397l-.23.18a75.27,75.27,0,0,1,5.15-20.07,59.05,59.05,0,0,1,11.2-18,48.07,48.07,0,0,1,8.2-7,45.74,45.74,0,0,1,9.74-4.94l2.61-.89,2.67-.7A25.09,25.09,0,0,1,172,345c.91-.15,1.81-.36,2.73-.47,1.85-.17,3.69-.45,5.55-.46l2.8-.09,2.8.09A69.38,69.38,0,0,1,208,348.11a57.11,57.11,0,0,1,10.27,5.17,53.54,53.54,0,0,1,8.89,7.46,58.15,58.15,0,0,1,12.06,20.06,74.13,74.13,0,0,1,4.41,23.48l-.23-.24,326.64,5.48-.26.24a125.57,125.57,0,0,1,2.75-16.4,102.58,102.58,0,0,1,5-16A56.69,56.69,0,0,1,586,362.87a59.64,59.64,0,0,1,12.48-11.4,39.8,39.8,0,0,1,15.14-5.86,64.45,64.45,0,0,1,8.07-.89c1.35-.06,2.7-.14,4-.14l2,0,2,.06c10.75.33,21.52,3.54,30,10a44.27,44.27,0,0,1,10.74,11.61,48.77,48.77,0,0,1,6.15,14.43c1.27,5.05,2.39,10.1,3.43,15.14s2,10.06,2.68,15.11l-.31-.22,27-5.51-.2.28c-2.65-28-5.26-55.63-7.68-81.33v.07l-3.44-9,.06.09c-34.74-33.75-68.4-66.23-100.93-97q-12.2-11.53-24.23-22.69c-8.06-7.39-16-14.81-24.25-21.49-8.48-6.52-16.2-13.72-24.39-20.11s-16.74-12.15-26.05-16.09a71,71,0,0,0-29-5.9c-9.81.1-19.47.09-29,.06l-55.1-.28L287.49,131l-139.2-1.33Z" style="fill:#263238"></path><path d="M130.52,338.4a3.57,3.57,0,0,1-.61.47l-1.82,1.26c-.79.55-1.71,1.3-2.8,2.13-.54.42-1.08.91-1.68,1.41s-1.22,1-1.85,1.63a101.76,101.76,0,0,0-17.2,21l-.09.14h-.16l-2.76-.3-29-3.24-8.78-1-2.39-.31a4.49,4.49,0,0,1-.83-.14,5.3,5.3,0,0,1,.84,0l2.4.21,8.8.88,29,3.08,2.75.3-.25.13a97.23,97.23,0,0,1,17.42-21c.63-.6,1.27-1.12,1.87-1.61s1.17-1,1.72-1.39c1.11-.81,2-1.54,2.85-2.07l1.88-1.18A5,5,0,0,1,130.52,338.4Z" style="fill:#455a64"></path><path d="M661.91,279.75c-1.61,0-3,32.64,36.54,35.39C698.45,315.14,698,280.67,661.91,279.75Z" style="fill:#3098F3"></path><path d="M468.89,405.31s0-.43,0-1.27,0-2.11,0-3.76c0-3.32,0-8.22,0-14.56,0-12.7,0-31.2-.08-54.4,0-46.43-.05-111.69-.09-187.07l.25.25L375,144.17l-93.58-.34.26-.26c0,37.75.58,73,1.08,104.54s1.1,59.53,1.53,82.77.87,41.75,1.14,54.47c.13,6.35.23,11.25.3,14.58,0,1.65.05,2.91.07,3.76s0,1.28,0,1.28,0-.44-.05-1.28-.07-2.11-.12-3.76c-.09-3.32-.22-8.22-.39-14.57-.3-12.72-.73-31.24-1.28-54.47s-1.09-51.19-1.64-82.78-1.08-66.79-1.16-104.54v-.25h.26l93.57.33,93.91.35h.25v.25c0,75.38-.06,140.64-.09,187.07,0,23.2-.05,41.7-.07,54.4,0,6.34,0,11.24,0,14.56,0,1.65,0,2.9,0,3.76S468.89,405.31,468.89,405.31Z" style="fill:#263238"></path><path d="M372.74,251.58c-.08-.12,11.27-7.55,25.34-16.6s25.54-16.3,25.62-16.18-11.27,7.56-25.34,16.61S372.82,251.7,372.74,251.58Z" style="fill:#455a64"></path><path d="M373.58,242c-.08-.12,7-5.15,15.83-11.22s16-10.91,16.12-10.79-7,5.14-15.83,11.22S373.66,242.12,373.58,242Z" style="fill:#455a64"></path><path d="M373.14,229.1a89.93,89.93,0,0,1,12-6.36,45.31,45.31,0,0,1-5.88,3.41A46.52,46.52,0,0,1,373.14,229.1Z" style="fill:#455a64"></path></g><g id="freepik--Plant--inject-4"><path d="M443.9,393.24a10.56,10.56,0,0,1,5.46,6.18,18.64,18.64,0,0,1,.72,8.37c-.61,5.43-3.7,10.91-7,15.25-4.57-4-5.63-11-5.94-14.52-.49-5.63,2-16.12,6.78-15.28" style="fill:#3098F3"></path><path d="M448.37,432a9,9,0,0,1,2.9-8.54,12,12,0,0,1,8.8-2.74,5,5,0,0,1,3.86,1.73,3.84,3.84,0,0,1,.05,3.89,7.77,7.77,0,0,1-2.88,2.84c-4,2.48-8.25,4.16-12.73,2.82" style="fill:#3098F3"></path><path d="M442.51,448.65a6.7,6.7,0,0,1,.16-1.12c.15-.78.33-1.8.56-3a31.38,31.38,0,0,1,3.11-9.64,19.28,19.28,0,0,1,6.91-7.34,12.67,12.67,0,0,1,2.82-1.25,7.66,7.66,0,0,1,.81-.2c.19,0,.29-.06.29,0a19.28,19.28,0,0,0-3.78,1.73,19.91,19.91,0,0,0-6.71,7.3,33.78,33.78,0,0,0-3.18,9.49c-.28,1.27-.5,2.29-.68,3A5.57,5.57,0,0,1,442.51,448.65Z" style="fill:#263238"></path><path d="M442.68,401.4a2,2,0,0,1,.06.48c0,.37.05.83.08,1.4.07,1.22.14,3,.21,5.15.14,4.35.25,10.37.22,17s-.19,12.66-.37,17c-.09,2.17-.18,3.93-.25,5.15,0,.57-.07,1-.1,1.39a1.61,1.61,0,0,1-.06.49,2.66,2.66,0,0,1,0-.49c0-.36,0-.83,0-1.4,0-1.27.07-3,.12-5.15.11-4.35.23-10.36.26-17s0-12.65-.11-17c0-2.14-.06-3.89-.08-5.15,0-.58,0-1,0-1.4A2.66,2.66,0,0,1,442.68,401.4Z" style="fill:#263238"></path><path d="M440.46,435.3A21,21,0,0,0,429,419.92c-1.53-.73-3.53-1.21-4.78-.07s-1,3.18-.36,4.76a17.94,17.94,0,0,0,16.49,11.14" style="fill:#3098F3"></path><path d="M429.74,425.07a6.78,6.78,0,0,1,1,.42,10.36,10.36,0,0,1,1.09.59c.41.26.91.51,1.4.87s1.05.73,1.6,1.21a21.14,21.14,0,0,1,1.7,1.54,23.26,23.26,0,0,1,3.22,4.15,22.3,22.3,0,0,1,2.13,4.81,19.4,19.4,0,0,1,.54,2.23,17.58,17.58,0,0,1,.27,2,14.16,14.16,0,0,1,.08,1.65,9.36,9.36,0,0,1,0,1.24,7,7,0,0,1-.11,1.05c-.09,0,.06-1.51-.21-3.91a17.22,17.22,0,0,0-.31-1.94,20.9,20.9,0,0,0-.57-2.19,23.17,23.17,0,0,0-2.12-4.72,24.21,24.21,0,0,0-3.15-4.1,19.36,19.36,0,0,0-1.65-1.54c-.52-.48-1.06-.86-1.54-1.23C431.07,425.78,429.7,425.15,429.74,425.07Z" style="fill:#263238"></path></g><g id="freepik--character-2--inject-4"><path d="M254.71,232.87A15.68,15.68,0,0,0,239.56,218l-.81,0c-8.76.23-13.46,7.8-13,16.55l.34,29.16,0,1.41,20.05,4.69.21-7.42s8.44-1,8.82-9.44C255.39,248.84,255.08,240.46,254.71,232.87Z" style="fill:#ffd9b9"></path><path d="M246.46,262.33a20.39,20.39,0,0,1-10.91-3.58s2.39,6.14,10.8,5.65Z" style="fill:#ffb48a"></path><path d="M252.23,240.86A1.21,1.21,0,0,1,251,242a1.15,1.15,0,0,1-1.2-1.13,1.2,1.2,0,0,1,1.19-1.17A1.15,1.15,0,0,1,252.23,240.86Z" style="fill:#263238"></path><path d="M252.77,236.93c-.15.15-1-.55-2.33-.59s-2.26.58-2.4.41.1-.35.52-.63a3.27,3.27,0,0,1,1.92-.53,3.18,3.18,0,0,1,1.85.66C252.72,236.57,252.85,236.86,252.77,236.93Z" style="fill:#263238"></path><path d="M240.81,240.7a1.2,1.2,0,0,1-1.19,1.18,1.17,1.17,0,0,1-1.21-1.12,1.21,1.21,0,0,1,1.2-1.18A1.15,1.15,0,0,1,240.81,240.7Z" style="fill:#263238"></path><path d="M240.07,236.76c-.16.15-1-.55-2.34-.59s-2.25.58-2.39.42.09-.35.52-.64a3.32,3.32,0,0,1,1.92-.53,3.14,3.14,0,0,1,1.85.67C240,236.41,240.14,236.69,240.07,236.76Z" style="fill:#263238"></path><path d="M244.45,246.49a8.54,8.54,0,0,1,2.11-.31c.33,0,.64-.08.71-.3a1.72,1.72,0,0,0-.19-1c-.29-.81-.58-1.65-.9-2.54a44,44,0,0,1-2-6.64,42.49,42.49,0,0,1,2.51,6.46l.86,2.56a2,2,0,0,1,.13,1.3.85.85,0,0,1-.56.46,2,2,0,0,1-.56.06A8.71,8.71,0,0,1,244.45,246.49Z" style="fill:#263238"></path><path d="M240.62,247.26c.21,0,.17,1.4,1.34,2.43s2.66.93,2.67,1.12-.35.27-1,.26a3.47,3.47,0,0,1-2.23-.86,3,3,0,0,1-1-2C240.36,247.59,240.52,247.25,240.62,247.26Z" style="fill:#263238"></path><path d="M240.56,231.71c-.13.35-1.42.14-2.94.27s-2.76.51-3,.19c-.09-.15.14-.48.64-.8a5.17,5.17,0,0,1,4.49-.35C240.35,231.26,240.62,231.55,240.56,231.71Z" style="fill:#f5f5f5"></path><path d="M252.42,233.17c-.24.29-1.12,0-2.19-.09s-2,.13-2.18-.18c-.09-.15.06-.44.47-.71a3,3,0,0,1,1.79-.42,3,3,0,0,1,1.73.64C252.41,232.73,252.52,233,252.42,233.17Z" style="fill:#f5f5f5"></path><path d="M254,229s-2-5.33-4.54-6.64c-3-1.59-4.46,1.74-7.36.83s-5.79-2.43-8.85-.26c-3.36,2.37-1.88,4.16-2.2,7.88-1.3,15.09-4.2,19.28-4.76,12.13-.06-.78-2.21-1.47-2.42-4.78-.28-4.29-.28-9.48.77-12.48.89-2.53,2.4-4.25,5.08-6.12,4.22-2.94,9.89-2.83,13.73-2.31S254.59,222.41,254,229Z" style="fill:#f5f5f5"></path><path d="M226.85,242.72a2.28,2.28,0,0,0-2.39-2.28c-1.57.1-3.35.94-3.35,4.18,0,5.75,5.78,4.56,5.79,4.4S226.87,245.13,226.85,242.72Z" style="fill:#ffd9b9"></path><path d="M225.65,246.85s-.1.08-.27.15a1,1,0,0,1-.75,0,2.48,2.48,0,0,1-1.15-2.23,3.44,3.44,0,0,1,.28-1.43,1.16,1.16,0,0,1,.76-.77.51.51,0,0,1,.59.27c.07.17,0,.28.07.29s.12-.1.08-.33a.69.69,0,0,0-.23-.36.73.73,0,0,0-.55-.15,1.4,1.4,0,0,0-1,.89,3.48,3.48,0,0,0-.35,1.6,2.62,2.62,0,0,0,1.46,2.49,1.12,1.12,0,0,0,.92-.15C225.64,247,225.67,246.87,225.65,246.85Z" style="fill:#ffb48a"></path><path d="M238.62,248c.09,0,.15-.6.65-1.08s1.09-.55,1.09-.65-.16-.09-.42-.06a1.75,1.75,0,0,0-.9.47,1.7,1.7,0,0,0-.48.9C238.52,247.88,238.58,248,238.62,248Z" style="fill:#ffb48a"></path><path d="M238.16,246.43c.08,0,.29-.14.6-.27s.6-.15.61-.25-.33-.23-.74,0S238.08,246.39,238.16,246.43Z" style="fill:#ffb48a"></path><path d="M230.87,259.66s-.08-.05-.15-.16a.51.51,0,0,1,0-.51c.1-.21.37-.4.56-.76a.75.75,0,0,0,0-.67,3.87,3.87,0,0,0-.35-.5c-.42-.59.89-.94.75-1.68a.88.88,0,0,0-.28-.62c-.13-.11-.22-.12-.23-.1a1.14,1.14,0,0,1,.28.72.91.91,0,0,1-.45.67,1.41,1.41,0,0,0-.4.46.67.67,0,0,0,0,.72c.13.2.27.33.34.47a.43.43,0,0,1,0,.4c-.12.28-.38.51-.49.79a.61.61,0,0,0,.11.69C230.76,259.71,230.87,259.67,230.87,259.66Z" style="fill:#ffb48a"></path><path d="M229.1,259.32s0-.08.08-.2a1.78,1.78,0,0,1,.34-.47,3.09,3.09,0,0,0,.26-.36.86.86,0,0,0,.1-.56c-.08-.42-.41-.69-.56-1s0-.54.26-.79a1.62,1.62,0,0,0,.32-.41,1,1,0,0,0,.11-.46c0-.6-.42-.79-.43-.75a1.44,1.44,0,0,1,.2.74,1,1,0,0,1-.42.67,1.44,1.44,0,0,0-.37.45.79.79,0,0,0,0,.69c.21.4.5.64.55.91s-.11.51-.25.72a1.26,1.26,0,0,0-.27.57C229,259.24,229.08,259.33,229.1,259.32Z" style="fill:#ffb48a"></path><path d="M223.78,235.46c-2.42-1.62-3.8-5.91-3.49-8.8.52-4.84,4.39-8.89,9-10.55s9.68-1.24,14.34.18c4.15,1.26,5.34,2.51,10.2,3.34,1.35.23,2.69-.64,4.07-.6a3.28,3.28,0,0,1,3.19,2.12,3,3,0,0,1-1.12,2.87,8.76,8.76,0,0,1-2.89,1.42c-11.69,4-21.05,8.11-33.26,10" style="fill:#263238"></path><path d="M260.44,222.62s-.12.07-.36.17l-1.08.4c-.93.34-2.3.82-4,1.39-3.38,1.15-8.05,2.69-13.25,4.31s-9.92,3-13.35,4c-1.71.48-3.1.87-4.07,1.12l-1.11.28a1.65,1.65,0,0,1-.4.07,1.22,1.22,0,0,1,.38-.15l1.09-.35,4-1.24,13.31-4.09,13.28-4.19,4-1.27,1.1-.33A1.87,1.87,0,0,1,260.44,222.62Z" style="fill:#455a64"></path><path d="M267.18,325.71s6.29,1,7.05,1.24,5.16,5.61,5.16,5.61l1.79,4.08-.44,3.61s-.45.56-1.06-.31a14.12,14.12,0,0,1-1.22-3l-1.62-2-1.23-.73s.11,2.91-.69,3.22-3.13.3-3.4-.18l-.28-.47s-1.68,1.72-2.58,1.46a1.25,1.25,0,0,1-1-.89,2.17,2.17,0,0,1-1.77.79l-.29-.07a2,2,0,0,1-1.47-1.63h0Z" style="fill:#ffd9b9"></path><path d="M269.89,333.2a4.76,4.76,0,0,1-.71,2.3,5.89,5.89,0,0,1-1.53,1.86,16.78,16.78,0,0,1,1.23-2C269.5,334.21,269.78,333.17,269.89,333.2Z" style="fill:#ffb48a"></path><path d="M273.06,332.7a5.64,5.64,0,0,1-.53,2.21,4.22,4.22,0,0,1-1.29,1.88c-.09-.07.51-.89,1-2A11.83,11.83,0,0,1,273.06,332.7Z" style="fill:#ffb48a"></path><path d="M275.17,332.11a3.91,3.91,0,0,1,.52,1.92,4.11,4.11,0,0,1-.16,2,11,11,0,0,1-.18-1.95A12.73,12.73,0,0,1,275.17,332.11Z" style="fill:#ffb48a"></path><path d="M246,268.2l-19.6-9.51s-16,7.63-18.55,20.56-2.21,61.73.87,66l5.06,6.19,1.29,6.28,43.78-5.16-.54-6.36.41-8.27Z" style="fill:#3098F3"></path><path d="M258.33,346.16c0,.11-10,1.37-22.3,2.82s-22.35,2.55-22.36,2.44,10-1.37,22.31-2.82S258.32,346.06,258.33,346.16Z" style="fill:#263238"></path><path d="M219.2,357.34a26.42,26.42,0,0,1-.75-6.39,13.79,13.79,0,0,1,.56,3.18A14,14,0,0,1,219.2,357.34Z" style="fill:#263238"></path><path d="M224.23,356.75a13.31,13.31,0,0,1-.57-3.17,13.05,13.05,0,0,1-.18-3.22,14.09,14.09,0,0,1,.57,3.17A13.67,13.67,0,0,1,224.23,356.75Z" style="fill:#263238"></path><path d="M229.26,356.16a14.09,14.09,0,0,1-.57-3.17,13.67,13.67,0,0,1-.18-3.22,13.45,13.45,0,0,1,.57,3.17A13.06,13.06,0,0,1,229.26,356.16Z" style="fill:#263238"></path><path d="M234.29,355.57a13.77,13.77,0,0,1-.56-3.17,14,14,0,0,1-.19-3.22,13.45,13.45,0,0,1,.57,3.17A13.05,13.05,0,0,1,234.29,355.57Z" style="fill:#263238"></path><path d="M239.33,355a13.47,13.47,0,0,1-.57-3.18,14,14,0,0,1-.19-3.21,12.62,12.62,0,0,1,.57,3.17A14,14,0,0,1,239.33,355Z" style="fill:#263238"></path><path d="M244.36,354.38a26.42,26.42,0,0,1-.75-6.39,14.1,14.1,0,0,1,.57,3.18A14.25,14.25,0,0,1,244.36,354.38Z" style="fill:#263238"></path><path d="M249.39,353.79a13.45,13.45,0,0,1-.57-3.17,13.06,13.06,0,0,1-.18-3.22,13.45,13.45,0,0,1,.57,3.17A13.06,13.06,0,0,1,249.39,353.79Z" style="fill:#263238"></path><path d="M254.42,353.2a14.09,14.09,0,0,1-.57-3.17,14.34,14.34,0,0,1-.18-3.22,13.45,13.45,0,0,1,.57,3.17A13.06,13.06,0,0,1,254.42,353.2Z" style="fill:#263238"></path><path d="M247.36,275.56a2.56,2.56,0,0,1,.12.41c.06.32.15.71.25,1.2.22,1.1.51,2.6.87,4.43.72,3.74,1.69,8.91,2.73,14.63s1.93,10.85,2.6,14.65c.31,1.84.56,3.34.75,4.45.07.49.13.89.18,1.21a2,2,0,0,1,0,.43,2.52,2.52,0,0,1-.12-.42c-.06-.31-.15-.71-.25-1.2-.22-1.1-.51-2.59-.87-4.42-.7-3.8-1.66-8.94-2.72-14.64s-1.93-10.85-2.6-14.64c-.31-1.84-.57-3.35-.75-4.45L247.4,276A2,2,0,0,1,247.36,275.56Z" style="fill:#263238"></path><path d="M223.7,267.34s-12.1,4.58-12.73,13.85,3.39,39.22,7.42,44.2S264.07,339,264.07,339l3.95-16.3-30.76-13.47s-3-27.64-6.11-34.74S223.7,267.34,223.7,267.34Z" style="fill:#3098F3"></path><path d="M231.93,274.41l.24.59a15.24,15.24,0,0,1,.6,1.75,63.34,63.34,0,0,1,1.54,6.92c1.08,6.05,2.17,14.82,3.1,25.56l-.09-.13,30.78,13.44.14.06,0,.16c-1.27,5.25-2.59,10.7-3.95,16.29l0,.19-.18,0-3.62-.78c-6-1.31-11.9-2.69-17.54-4.12s-11.06-2.93-16.12-4.66a39.34,39.34,0,0,1-7.2-3.09c-.27-.18-.53-.38-.79-.57a3.74,3.74,0,0,1-.66-.72,9.54,9.54,0,0,1-.91-1.65,31.43,31.43,0,0,1-1.22-3.44,112.52,112.52,0,0,1-2.8-12.93,187.73,187.73,0,0,1-2.17-19c-.13-2.26-.15-4-.13-5.21s.1-1.81.1-1.81,0,.15,0,.46,0,.76,0,1.35c0,1.19.05,2.94.2,5.2.3,4.5.95,11,2.29,19a115.36,115.36,0,0,0,2.83,12.89,31.27,31.27,0,0,0,1.22,3.39,9.09,9.09,0,0,0,.88,1.59,4.21,4.21,0,0,0,.6.66c.25.18.5.37.76.54a39.42,39.42,0,0,0,7.13,3c5.06,1.72,10.47,3.19,16.11,4.63s11.5,2.8,17.53,4.12l3.6.77-.22.14c1.36-5.59,2.68-11,4-16.29l.1.22L237.2,309.38l-.08,0v-.09c-.9-10.73-2-19.5-3-25.55a70,70,0,0,0-1.46-6.92,16,16,0,0,0-.56-1.77C232,274.62,231.93,274.41,231.93,274.41Z" style="fill:#263238"></path><path d="M228.13,268.38a21.15,21.15,0,0,0-2.5-.65,11.18,11.18,0,0,0-6.08.69,12.6,12.6,0,0,0-4.72,3.94c-.94,1.29-1.31,2.23-1.37,2.2s0-.25.22-.67a10,10,0,0,1,.92-1.69,12,12,0,0,1,4.79-4.13,10.76,10.76,0,0,1,6.29-.61,8.63,8.63,0,0,1,1.84.57A2.08,2.08,0,0,1,228.13,268.38Z" style="fill:#263238"></path><path d="M261.9,320.45c.1,0-.95,3.88-2.35,8.61s-2.61,8.54-2.71,8.51.94-3.89,2.34-8.62S261.8,320.42,261.9,320.45Z" style="fill:#263238"></path><path d="M264.74,336.13a16,16,0,0,1-3.53-.69,17.47,17.47,0,0,1-3.43-1.07,15.9,15.9,0,0,1,3.53.69A17.18,17.18,0,0,1,264.74,336.13Z" style="fill:#263238"></path><path d="M266.05,331.18a19.84,19.84,0,0,1-3.48-.83,27.78,27.78,0,0,1-3.41-1,11.49,11.49,0,0,1,3.52.66A14.74,14.74,0,0,1,266.05,331.18Z" style="fill:#263238"></path><path d="M266.77,327.13a25.82,25.82,0,0,1-6-2.17,25.82,25.82,0,0,1,6,2.17Z" style="fill:#263238"></path><g style="opacity:0.30000000000000004"><path d="M268,322.71,254.92,317,246,268.2l-19.6-9.51s-16,7.63-18.55,20.56-2.21,61.73.87,66l5.06,6.19,1.29,6.28,43.78-5.16-.54-6.36.41-8.27v0c3.25.72,5.33,1.15,5.33,1.15Z"></path></g><path d="M327.66,399l3.42,16.74s18.16,2.16,19.09,5.19L318,428.71l-6.39-25.86Z" style="fill:#3098F3"></path><g style="opacity:0.30000000000000004"><path d="M327.66,399l3.42,16.74s18.16,2.16,19.09,5.19L318,428.71l-6.39-25.86Z"></path></g><path d="M320.78,416.75a1.36,1.36,0,0,0-.55,1.73,1.3,1.3,0,0,0,1.7.55,1.42,1.42,0,0,0,.57-1.82,1.35,1.35,0,0,0-1.83-.39" style="fill:#263238"></path><path d="M318,428.71l-.62-2.51,31.17-6.6s1.59.28,1.67,1.33Z" style="fill:#263238"></path><path d="M331.56,415.45c0,.16-.74.42-1.39,1.12s-.9,1.45-1.06,1.42-.15-1,.66-1.81S331.56,415.3,331.56,415.45Z" style="fill:#263238"></path><path d="M335.28,416c.07.14-.55.57-.92,1.37s-.36,1.53-.52,1.56-.47-.83,0-1.81S335.24,415.89,335.28,416Z" style="fill:#263238"></path><path d="M338.17,419.62c-.13.06-.54-.67-.34-1.63s.84-1.48.94-1.36-.24.68-.39,1.47S338.33,419.56,338.17,419.62Z" style="fill:#263238"></path><path d="M330.36,411.73c0,.15-.81.11-1.68.39s-1.5.72-1.62.61.42-.84,1.45-1.15S330.41,411.58,330.36,411.73Z" style="fill:#263238"></path><path d="M322.88,403.8l1.3,17s17.74,4.4,18.29,7.53l-32.94,3.69-3.1-26.46Z" style="fill:#3098F3"></path><path d="M313.83,420.55a1.35,1.35,0,0,0-.76,1.64,1.31,1.31,0,0,0,1.62.77,1.43,1.43,0,0,0,.79-1.74,1.34,1.34,0,0,0-1.77-.61" style="fill:#263238"></path><path d="M309.53,432.06l-.3-2.56L341,426.84s1.54.48,1.49,1.53Z" style="fill:#263238"></path><path d="M324.69,420.61c0,.16-.78.32-1.52.93s-1.08,1.33-1.23,1.28,0-1,.88-1.72S324.71,420.46,324.69,420.61Z" style="fill:#263238"></path><path d="M328.31,421.65c.05.15-.62.5-1.09,1.25s-.54,1.47-.7,1.49-.37-.89.23-1.8S328.28,421.5,328.31,421.65Z" style="fill:#263238"></path><path d="M330.73,425.57c-.14.05-.46-.73-.14-1.66s1-1.36,1.11-1.23-.33.64-.58,1.41S330.89,425.53,330.73,425.57Z" style="fill:#263238"></path><path d="M324,416.76c-.06.15-.82,0-1.72.18s-1.58.53-1.68.4.52-.78,1.58-1S324,416.62,324,416.76Z" style="fill:#263238"></path><polygon points="320.95 348.75 335.55 412.86 323.26 415.61 320.95 348.75" style="fill:#263238"></polygon><path d="M321.91,352.63c-2.44-13.32-10.79-16.89-16.93-17.4-6.91-.57-91.8-1.05-91.8-1.05l-.47,6.69,52.56,24.37,33.18-.23,8.3,54.35,19.79-2.71S324.34,366,321.91,352.63Z" style="fill:#263238"></path><path d="M322.35,354c.11,0,1.14,14,2.3,31.32s2,31.34,1.89,31.34-1.13-14-2.29-31.32S322.24,354,322.35,354Z" style="fill:#455a64"></path><path d="M206.11,292.09l10.22,48.7-24.72-1.48-1.08-42-22-.21a2.74,2.74,0,0,1-2.71-2.77h0a2.74,2.74,0,0,1,2.77-2.7Z" style="fill:#455a64"></path><path d="M188,339.31l.88,33.13,86.74.27a8.46,8.46,0,0,0,8.49-8.37h0a8.48,8.48,0,0,0-8.19-8.57l-7.5-.24.4-16.47a4.32,4.32,0,0,0-4.27-4.43l-71.16-.8A5.34,5.34,0,0,0,188,339.31Z" style="fill:#455a64"></path><rect x="219.93" y="361.94" width="5.07" height="51.06" transform="translate(4.39 -2.48) rotate(0.65)" style="fill:#455a64"></rect><rect x="219.67" y="408.91" width="72.05" height="4.26" transform="translate(4.66 -2.86) rotate(0.65)" style="fill:#455a64"></rect><path d="M225.88,442.09a48.89,48.89,0,1,1,.56,0Zm-32.63-82.16A47.46,47.46,0,1,0,227,346.41h-.56A47.11,47.11,0,0,0,193.25,359.93Z" style="fill:#e0e0e0"></path><path d="M250.57,394.55c-13.17-.15-23.83-.29-23.83-.3s10.66.11,23.83.27l23.83.3S263.72,394.71,250.57,394.55Z" style="fill:#e0e0e0"></path><path d="M250.2,398.49l-23.47-4.16,23.48,4.13,23.46,4.16Z" style="fill:#e0e0e0"></path><path d="M249.2,402.32l-22.47-8,22.48,7.93,22.46,7.95S261.6,406.7,249.2,402.32Z" style="fill:#e0e0e0"></path><path d="M247.58,405.92c-11.53-6.36-20.86-11.53-20.86-11.54l20.87,11.51c11.52,6.36,20.86,11.53,20.85,11.54Z" style="fill:#e0e0e0"></path><path d="M245.39,409.21l-18.7-14.78s8.39,6.6,18.72,14.76S264.11,424,264.1,424,255.72,417.36,245.39,409.21Z" style="fill:#e0e0e0"></path><path d="M242.7,412.1c-8.88-9.72-16.06-17.61-16.06-17.61s7.21,7.87,16.08,17.59,16.06,17.61,16,17.61S251.57,421.82,242.7,412.1Z" style="fill:#e0e0e0"></path><path d="M239.57,414.52c-7.18-11-13-20-13-20s5.83,8.94,13,20,13,20,13,20S246.75,425.55,239.57,414.52Z" style="fill:#e0e0e0"></path><path d="M236.1,416.39c-5.28-12.06-9.55-21.83-9.55-21.84s4.3,9.77,9.58,21.83,9.55,21.83,9.54,21.83S241.38,428.45,236.1,416.39Z" style="fill:#e0e0e0"></path><path d="M232.36,417.68c-3.23-12.77-5.84-23.11-5.83-23.12s2.63,10.34,5.86,23.11,5.84,23.1,5.83,23.1S235.59,430.43,232.36,417.68Z" style="fill:#e0e0e0"></path><path d="M228.47,418.33c-1.1-13.12-2-23.76-2-23.76s.9,10.63,2,23.75,2,23.75,2,23.75S229.56,431.44,228.47,418.33Z" style="fill:#e0e0e0"></path><path d="M224.51,418.34c1-13.13,1.87-23.77,1.88-23.76s-.81,10.63-1.84,23.76-1.88,23.75-1.89,23.75S223.48,431.45,224.51,418.34Z" style="fill:#e0e0e0"></path><path d="M220.61,417.7c3.16-12.78,5.73-23.13,5.73-23.13s-2.54,10.36-5.7,23.14-5.73,23.13-5.73,23.13S217.45,430.48,220.61,417.7Z" style="fill:#e0e0e0"></path><path d="M216.86,416.44c5.22-12.08,9.45-21.88,9.46-21.87s-4.21,9.8-9.43,21.89-9.45,21.87-9.46,21.87S211.65,428.52,216.86,416.44Z" style="fill:#e0e0e0"></path><path d="M213.38,414.58c7.12-11.07,12.9-20,12.91-20s-5.76,9-12.89,20.05-12.9,20-12.91,20Z" style="fill:#e0e0e0"></path><path d="M210.24,412.18l16-17.67s-7.14,7.93-16,17.69-16,17.67-16,17.67S201.42,421.94,210.24,412.18Z" style="fill:#e0e0e0"></path><path d="M207.53,409.3l18.65-14.84s-8.33,6.66-18.63,14.87-18.63,14.85-18.64,14.84Z" style="fill:#e0e0e0"></path><path d="M205.33,406c11.49-6.43,20.81-11.63,20.82-11.62l-20.8,11.64-20.81,11.61S193.85,412.44,205.33,406Z" style="fill:#e0e0e0"></path><path d="M203.7,402.43l22.43-8.05s-10,3.63-22.42,8.08l-22.43,8.05S191.31,406.88,203.7,402.43Z" style="fill:#e0e0e0"></path><path d="M202.67,398.62l23.45-4.26s-10.49,1.93-23.44,4.29-23.45,4.26-23.45,4.25S189.73,401,202.67,398.62Z" style="fill:#e0e0e0"></path><path d="M202.28,394.68l23.83-.38-23.83.42c-13.15.22-23.82.39-23.82.38S189.13,394.9,202.28,394.68Z" style="fill:#e0e0e0"></path><path d="M202.54,390.74c13,1.9,23.58,3.46,23.58,3.47l-23.59-3.44c-13-1.91-23.58-3.46-23.57-3.47S189.52,388.83,202.54,390.74Z" style="fill:#e0e0e0"></path><path d="M203.43,386.89c12.53,4,22.69,7.28,22.69,7.29l-22.7-7.26-22.69-7.29S190.9,382.87,203.43,386.89Z" style="fill:#e0e0e0"></path><path d="M204.94,383.23l21.19,10.92s-9.5-4.87-21.21-10.89-21.18-10.9-21.18-10.91S193.24,377.22,204.94,383.23Z" style="fill:#e0e0e0"></path><path d="M207,379.88c10.57,7.85,19.13,14.22,19.12,14.23L207,379.91l-19.12-14.23Z" style="fill:#e0e0e0"></path><path d="M209.63,376.91c9.16,9.46,16.57,17.13,16.57,17.14s-7.43-7.66-16.59-17.12-16.56-17.12-16.56-17.13S200.49,367.46,209.63,376.91Z" style="fill:#e0e0e0"></path><path d="M212.69,374.41c7.5,10.82,13.57,19.59,13.56,19.59s-6.09-8.76-13.59-19.58-13.57-19.58-13.56-19.59S205.19,363.59,212.69,374.41Z" style="fill:#e0e0e0"></path><path d="M216.1,372.43c5.64,11.9,10.2,21.54,10.19,21.55s-4.58-9.64-10.21-21.54-10.2-21.54-10.19-21.54S210.47,360.54,216.1,372.43Z" style="fill:#e0e0e0"></path><path d="M219.8,371c3.61,12.66,6.52,22.92,6.51,22.93s-2.93-10.26-6.54-22.92-6.52-22.92-6.51-22.92S216.2,358.38,219.8,371Z" style="fill:#e0e0e0"></path><path d="M223.68,370.27c1.48,13.08,2.67,23.69,2.66,23.69s-1.21-10.6-2.69-23.68S221,346.6,221,346.6,222.2,357.2,223.68,370.27Z" style="fill:#e0e0e0"></path><path d="M227.63,370.15c-.65,13.15-1.18,23.8-1.19,23.8s.51-10.65,1.15-23.8,1.18-23.8,1.19-23.8S228.28,357,227.63,370.15Z" style="fill:#e0e0e0"></path><path d="M231.55,370.66c-2.78,12.87-5,23.3-5.05,23.3s2.24-10.44,5-23.3,5-23.29,5-23.29S234.33,357.8,231.55,370.66Z" style="fill:#e0e0e0"></path><path d="M235.33,371.81c-4.86,12.24-8.8,22.15-8.81,22.15s3.92-9.92,8.78-22.16,8.8-22.14,8.81-22.14S240.19,359.59,235.33,371.81Z" style="fill:#e0e0e0"></path><path d="M238.87,373.57c-6.79,11.27-12.31,20.41-12.32,20.4l12.29-20.42c6.8-11.27,12.31-20.4,12.32-20.4S245.66,362.3,238.87,373.57Z" style="fill:#e0e0e0"></path><path d="M242.08,375.88c-8.54,10-15.47,18.13-15.47,18.13s6.9-8.13,15.44-18.15,15.46-18.13,15.47-18.13S250.61,365.87,242.08,375.88Z" style="fill:#e0e0e0"></path><path d="M244.87,378.68c-10.06,8.5-18.2,15.39-18.21,15.38s8.13-6.9,18.19-15.41,18.19-15.38,18.2-15.38S254.91,370.18,244.87,378.68Z" style="fill:#e0e0e0"></path><path d="M247.16,381.89c-11.3,6.76-20.46,12.23-20.46,12.22s9.15-5.49,20.45-12.25l20.45-12.21S258.45,375.14,247.16,381.89Z" style="fill:#e0e0e0"></path><path d="M248.9,385.43l-22.18,8.71s9.92-3.92,22.17-8.74l22.18-8.7S261.15,380.62,248.9,385.43Z" style="fill:#e0e0e0"></path><path d="M250,389.22c-12.87,2.74-23.31,4.95-23.31,4.94s10.43-2.24,23.31-5l23.3-4.94S262.91,386.48,250,389.22Z" style="fill:#e0e0e0"></path><path d="M250.55,393.14c-13.16.6-23.81,1.08-23.82,1.07l23.81-1.11L274.35,392S263.69,392.53,250.55,393.14Z" style="fill:#e0e0e0"></path><path d="M230.3,394.31a3.5,3.5,0,1,1-3.46-3.54A3.49,3.49,0,0,1,230.3,394.31Z" style="fill:#455a64"></path><path d="M289.72,422.56a13.62,13.62,0,1,0,13.46,13.77A13.62,13.62,0,0,0,289.72,422.56Zm-.28,24.19a10.57,10.57,0,1,1,10.69-10.45A10.58,10.58,0,0,1,289.44,446.75Z" style="fill:#263238"></path><polygon points="291.46 434.87 288.19 434.83 289.01 362.23 277.53 362.1 277.57 358.83 292.31 358.99 291.46 434.87" style="fill:#455a64"></polygon><path d="M306.74,431.65c0-.36.4-52.83.2-62.76a5.78,5.78,0,0,0-2.36-4.79c-4.45-3.36-13.59-2.3-13.69-2.29l-.45-2.85c.43-.06,10.68-1.25,16.26,3a8.51,8.51,0,0,1,3.51,6.94c.2,10-.2,62.46-.2,62.82Z" style="fill:#455a64"></path><rect x="306.37" y="429.53" width="26.2" height="3.19" transform="translate(4.89 -3.58) rotate(0.65)" style="fill:#455a64"></rect><path d="M227.36,339.36A55.22,55.22,0,1,0,282,395.2,55.22,55.22,0,0,0,227.36,339.36ZM226.14,447c-28.34-.32-51-24-50.72-52.95s23.56-52.11,51.9-51.79,51.06,24,50.73,53S254.48,447.27,226.14,447Z" style="fill:#263238"></path></g><g id="freepik--character-1--inject-4"><path d="M147.94,424.05l-.83,16.56s16.55,6.41,16.69,9.48l-32.16-.46.24-25.85Z" style="fill:#263238"></path><path d="M131.64,449.63l0-2.5,30.89,1.31s1.43.65,1.25,1.65Z" style="fill:#455a64"></path><path d="M147.63,440.45c0,.16-.79.22-1.57.72s-1.21,1.14-1.35,1.08.1-1,1.06-1.55S147.67,440.31,147.63,440.45Z" style="fill:#fff"></path><path d="M151,441.9c0,.15-.65.41-1.19,1.07s-.71,1.35-.86,1.34-.25-.9.44-1.7S151,441.75,151,441.9Z" style="fill:#fff"></path><path d="M152.84,446c-.14,0-.35-.75.07-1.61s1.15-1.18,1.22-1.05-.4.58-.73,1.29S153,446,152.84,446Z" style="fill:#fff"></path><path d="M147.4,436.66c-.07.14-.78-.08-1.67,0s-1.59.32-1.67.19.6-.69,1.64-.73S147.48,436.54,147.4,436.66Z" style="fill:#fff"></path><path d="M118.83,424.05,118,440.61s16.55,6.41,16.69,9.48l-32.16-.46.24-25.85Z" style="fill:#263238"></path><path d="M102.53,449.63l0-2.5,30.89,1.31s1.42.65,1.24,1.65Z" style="fill:#455a64"></path><path d="M118.52,440.45c0,.16-.79.22-1.57.72s-1.2,1.14-1.34,1.08.1-1,1-1.55S118.56,440.31,118.52,440.45Z" style="fill:#fff"></path><path d="M121.88,441.9c0,.15-.65.41-1.2,1.07s-.7,1.35-.86,1.34-.24-.9.45-1.7S121.88,441.75,121.88,441.9Z" style="fill:#fff"></path><path d="M123.73,446c-.14,0-.35-.75.07-1.61s1.15-1.18,1.22-1.05-.4.58-.73,1.29S123.89,446,123.73,446Z" style="fill:#fff"></path><path d="M118.29,436.66c-.06.14-.78-.08-1.67,0s-1.58.32-1.66.19.59-.69,1.64-.73S118.37,436.54,118.29,436.66Z" style="fill:#fff"></path><path d="M104.79,281.28c-.4.49-12.38,18.58-11.52,29.34s1.32,14.56,6.66,20.87c0,0,2.27,33.89,2.37,38.26,0,.49-1.3,8.74-2.08,29.46-.48,12.84-.3,38.6-.3,38.6l24.45.46s2.1-44.28,3.23-47.67a64,64,0,0,0,2.65-13.32c.38-4.82,5.27-38.62,5.27-38s6.73-30.82,7.21-38.48a99.47,99.47,0,0,0,0-13.38Z" style="fill:#455a64"></path><path d="M138.94,302.09c.48.69,19.76,67.92,19.76,72.5S152.15,437,152.15,437l-23.88.47,4.15-59.32-2.37-13.73-14.16-35.95Z" style="fill:#455a64"></path><path d="M142.63,302a.76.76,0,0,1,0,.2q0,.22-.06.57c-.06.52-.14,1.25-.24,2.17-.23,1.89-.47,4.63-1,8-.28,1.68-.69,3.5-1.11,5.45s-.86,4.05-1.32,6.24c-.92,4.4-1.9,9.25-2.86,14.34-1.93,10.2-3.35,19.49-4.25,26.22-.45,3.37-.78,6.1-1,8-.11.92-.2,1.65-.27,2.18,0,.22,0,.41-.07.56s0,.19,0,.19V376c0-.16,0-.34,0-.57,0-.53.11-1.26.2-2.18.17-1.9.46-4.64.88-8,.82-6.75,2.21-16.06,4.14-26.26,1-5.1,1.95-9.94,2.89-14.34q.72-3.3,1.36-6.24c.43-2,.86-3.76,1.15-5.43.59-3.34.87-6.09,1.14-8,.14-.91.25-1.64.32-2.17,0-.22.08-.41.1-.56A.91.91,0,0,1,142.63,302Z" style="fill:#263238"></path><path d="M117.62,169.42c-2.11-2.61-7.69-2.55-9.1-1a4.25,4.25,0,0,0-5.66,1.54l-6,.95a6.2,6.2,0,0,0-2.9,1,2.12,2.12,0,0,0-.66,2.73,3.23,3.23,0,0,0-1.65,5.07,2.25,2.25,0,0,0,.15,3.26,22.67,22.67,0,0,0-4.18,6.37,4.52,4.52,0,0,0-.47,3.1,1.82,1.82,0,0,0,2.49,1.21,2.63,2.63,0,0,0-.29,2.83c-1,0-1.39,1.5-.74,2.27a3.67,3.67,0,0,0,2.76.93,4.87,4.87,0,0,1,2.88.67.9.9,0,0,1-.36.61,4.13,4.13,0,0,0-1.24,5.56l.3.47a8.94,8.94,0,0,0,2.8,2.21c2.19,1.31,3.55,1.16,6.06,1.67-.78,1.59,3.11,5.43,8,2.15a90.83,90.83,0,0,0,25.63,5c1.38.08,3,0,3.74-1.22a3.44,3.44,0,0,0,3.22-.86,9.82,9.82,0,0,0,2-2.82,6,6,0,0,0,4.65-5.18,7.45,7.45,0,0,0,3.11-5.15,4.38,4.38,0,0,0,2.85-5.76,26.42,26.42,0,0,0-2.42-8.33c1.61-.25,2.32-2.36,1.76-3.88a8.38,8.38,0,0,0-3.28-3.51c1.17.38,2.29-1.05,2.07-2.26a4.67,4.67,0,0,0-2.26-2.79,22.63,22.63,0,0,0-4.79-2.47c-.45-2.12-3-4.65-4.89-5.69-7.67-4.18-13.15-5.44-23.62,1.36" style="fill:#263238"></path><path d="M138.74,185.7c-.32-5.47-3.92-12.19-9.36-11.64l-17,4.23a3.2,3.2,0,0,0-2.88,3.23l.42,36.44a10,10,0,0,0,8.1,9.7h0c4.8.92,13.57,2.16,15.33-2.07l-3.7-4.65c.12-2.5.45-7,.46-7s7-1.13,8.47-10.23C139.29,199.2,139.09,191.77,138.74,185.7Z" style="fill:#c0645a"></path><path d="M136.29,192.93a1.17,1.17,0,0,1-1.13,1.18,1.11,1.11,0,0,1-1.2-1.06,1.17,1.17,0,0,1,1.13-1.18A1.13,1.13,0,0,1,136.29,192.93Z" style="fill:#263238"></path><path d="M137.11,189.56c-.15.15-1-.51-2.29-.51s-2.18.62-2.31.46.08-.34.48-.63a3.23,3.23,0,0,1,3.68,0C137.05,189.21,137.18,189.49,137.11,189.56Z" style="fill:#263238"></path><path d="M125.15,192.68a1.17,1.17,0,0,1-1.13,1.17,1.11,1.11,0,0,1-1.2-1.06,1.16,1.16,0,0,1,1.13-1.17A1.12,1.12,0,0,1,125.15,192.68Z" style="fill:#263238"></path><path d="M124.75,189.74c-.15.15-1-.51-2.29-.51s-2.18.62-2.31.47.08-.35.48-.64a3.23,3.23,0,0,1,3.68,0C124.69,189.39,124.82,189.67,124.75,189.74Z" style="fill:#263238"></path><path d="M129.27,199.08a8.76,8.76,0,0,1,2-.36c.32,0,.62-.09.68-.31a1.76,1.76,0,0,0-.21-1c-.3-.77-.62-1.59-.94-2.44a41.79,41.79,0,0,1-2.11-6.41,43.24,43.24,0,0,1,2.62,6.22q.46,1.29.9,2.46a1.92,1.92,0,0,1,.16,1.27.8.8,0,0,1-.53.46,2.43,2.43,0,0,1-.55.08A8.35,8.35,0,0,1,129.27,199.08Z" style="fill:#263238"></path><path d="M130.08,214a23.16,23.16,0,0,1-12.19-3.31s2.93,6.27,12,5.46Z" style="fill:#924640"></path><path d="M125.33,184.56c-.13.34-1.38.18-2.86.35s-2.67.57-2.86.26c-.09-.15.12-.47.6-.8a4.71,4.71,0,0,1,2.13-.73,4.84,4.84,0,0,1,2.23.27C125.11,184.13,125.38,184.4,125.33,184.56Z" style="fill:#263238"></path><path d="M136.68,185.23c-.22.28-1.08,0-2.12,0s-1.93.19-2.13-.11,0-.43.44-.7a2.89,2.89,0,0,1,1.73-.46,2.86,2.86,0,0,1,1.7.58C136.66,184.79,136.78,185.09,136.68,185.23Z" style="fill:#263238"></path><path d="M142.61,190.27a6.25,6.25,0,0,0-1.32-4c-.5-.6-1.16-1.07-1.6-1.71-1-1.4-.72-3.26-1.08-4.91a6.88,6.88,0,0,0-4-4.83c-1.67-.69-3.61-.7-5.17-1.63-1.15-.69-2-1.82-3.19-2.44-2.32-1.2-5.13-.12-7.43,1.11-.53,1.76.52,3.35,1.53,4.88a6.35,6.35,0,0,0,4.55,2.78c1.42.16,3.09-.08,4,1s.5,3,1.3,4.24c1.15,1.81,4,1.28,5.78,2.45,1.39.9,1.9,2.64,2.55,4.16s1.81,3.14,3.46,3.14A18.38,18.38,0,0,0,142.61,190.27Z" style="fill:#263238"></path><path d="M122.17,175.28a32.4,32.4,0,0,0-12.28,1.6,5.91,5.91,0,0,0-3.11,1.93,5.75,5.75,0,0,0-.78,3.12c-.13,3.41,1,7.64,2.18,10.85l4.13,2.76c3.31-.62,2.09-6.34,2.07-9.19a6.69,6.69,0,0,0,4.19-5.71A7.41,7.41,0,0,0,122.17,175.28Z" style="fill:#263238"></path><path d="M112.31,194.31c0-1.95-2.41-2.45-4.13-1.53-1,.51-1.69,1.57-1.67,3.64,0,5.53,5.59,4.34,5.59,4.18S112.35,196.6,112.31,194.31Z" style="fill:#c0645a"></path><path d="M110.4,198.52s-.1.07-.26.15a1,1,0,0,1-.72,0,2.36,2.36,0,0,1-1.12-2.13,3.09,3.09,0,0,1,.26-1.38,1.11,1.11,0,0,1,.71-.75.5.5,0,0,1,.58.26c.07.15,0,.27.07.28s.11-.1.07-.33a.62.62,0,0,0-.22-.34.75.75,0,0,0-.54-.14,1.39,1.39,0,0,0-1,.87,3.35,3.35,0,0,0-.32,1.54,2.52,2.52,0,0,0,1.43,2.38,1,1,0,0,0,.88-.16C110.39,198.66,110.42,198.53,110.4,198.52Z" style="fill:#924640"></path><path d="M107.52,201.85a4.75,4.75,0,0,1-.88-.1,3.29,3.29,0,0,1-1-.34l.07,0a2.75,2.75,0,0,1-4.46,1.53h.1a1.12,1.12,0,0,1-.75.44,1.51,1.51,0,0,1-.89-.11,1.53,1.53,0,0,1-.69-.62,1.85,1.85,0,0,1-.23-.92,2.8,2.8,0,0,1,.69-1.81,7.86,7.86,0,0,1,1.52-1.35v.13a2,2,0,0,1-.81-1.35,2.85,2.85,0,0,1,.24-1.62,4.29,4.29,0,0,1,1-1.33,14,14,0,0,1,1.36-1l0,.12a2.07,2.07,0,0,1-.46-1.62,2.93,2.93,0,0,1,.7-1.61,7.52,7.52,0,0,1,2.78-1.75l-.05.1a3.68,3.68,0,0,1,4.2-4.33l-.09.09a3.3,3.3,0,0,1,3.27-3.68l-.08.07a3.1,3.1,0,0,1,1.37-2.34,3,3,0,0,1,2.34-.53l-.07,0a3.15,3.15,0,0,1,.52-1.39,4,4,0,0,1,.89-1,3.18,3.18,0,0,1,1.92-.72h.21l.19,0a2.94,2.94,0,0,1,.35,0,3.82,3.82,0,0,1,.52.18l.3.14.1.06-.11,0-.3-.13a3.25,3.25,0,0,0-.52-.16,3.07,3.07,0,0,0-.34-.05l-.19,0h-.21a3.09,3.09,0,0,0-1.87.72,4,4,0,0,0-.86,1,3,3,0,0,0-.49,1.35V178h-.06a2.93,2.93,0,0,0-2.25.52,3,3,0,0,0-1.3,2.24v.07h-.07a3.14,3.14,0,0,0-3.1,3.51l0,.11-.11,0a3.51,3.51,0,0,0-4,4.14v.07l-.06,0a7.23,7.23,0,0,0-2.72,1.7,2.82,2.82,0,0,0-.66,1.52,1.87,1.87,0,0,0,.42,1.49l.06.07-.08.06a6.35,6.35,0,0,0-2.33,2.3,2.6,2.6,0,0,0-.23,1.52,1.77,1.77,0,0,0,.74,1.25l.09.06-.09.07a7.93,7.93,0,0,0-1.5,1.31,2.71,2.71,0,0,0-.66,1.71,1.48,1.48,0,0,0,.84,1.42,1.2,1.2,0,0,0,1.47-.28l0-.06.06.05a2.66,2.66,0,0,0,2.76.4,2.71,2.71,0,0,0,1.52-1.85v-.06l0,0a3.37,3.37,0,0,0,.93.34,4.5,4.5,0,0,0,.86.11,3.38,3.38,0,0,0,1.36-.19,1.3,1.3,0,0,0,.67-.51c.09-.17.11-.27.12-.27a.17.17,0,0,1,0,.07.62.62,0,0,1-.08.21,1.33,1.33,0,0,1-.67.54" style="fill:#455a64"></path><path d="M89,193.87a1.79,1.79,0,0,1-.19-.34,3,3,0,0,1-.24-1.11,2.76,2.76,0,0,1,.54-1.7,2.91,2.91,0,0,1,2.06-1.18l-.05.07a3.77,3.77,0,0,1,.63-2.7,3.6,3.6,0,0,1,1.14-1.09,8.33,8.33,0,0,1,1.54-.64,2.91,2.91,0,0,0,.74-.39,1.83,1.83,0,0,0,.54-.66c.27-.51.38-1.14.72-1.69a3.34,3.34,0,0,1,3.44-1.5l-.1.09a4.43,4.43,0,0,1,5.14-4.77l-.09.09A3.88,3.88,0,0,1,111,173h-.09a5.43,5.43,0,0,1,2-1.08,8.29,8.29,0,0,1,2-.36,9.31,9.31,0,0,1,3.26.39,6.56,6.56,0,0,1,1.91.9,4.12,4.12,0,0,1,.43.35l.14.13s-.2-.17-.6-.45a6.87,6.87,0,0,0-1.9-.86,9.54,9.54,0,0,0-3.23-.34,8,8,0,0,0-2,.36,5.36,5.36,0,0,0-1.93,1.07l0,0,0,0a3.73,3.73,0,0,0-6,3.21v.1l-.11,0A4.26,4.26,0,0,0,99.89,181v.11l-.11,0a3.22,3.22,0,0,0-3.28,1.42c-.32.52-.43,1.14-.71,1.68a2.11,2.11,0,0,1-.58.71,3.71,3.71,0,0,1-.79.41,8.61,8.61,0,0,0-1.52.61,3.68,3.68,0,0,0-1.1,1,3.64,3.64,0,0,0-.63,2.61v.06h-.06a2.85,2.85,0,0,0-2,1.12,2.73,2.73,0,0,0-.55,1.65,3,3,0,0,0,.21,1.1C88.89,193.75,89,193.87,89,193.87Z" style="fill:#455a64"></path><path d="M141.62,198a.54.54,0,0,1,0-.45,1,1,0,0,1,.35-.44,1.67,1.67,0,0,1,.7-.31,3.36,3.36,0,0,0,.88-.32,1.74,1.74,0,0,0,.66-.85,3.37,3.37,0,0,0,.2-1.26c0-.46,0-.94,0-1.46a14.63,14.63,0,0,1,.87-3.22,4.76,4.76,0,0,0,.16-1.81,2.21,2.21,0,0,0-.92-1.6,8.65,8.65,0,0,0-1.9-.75,3.34,3.34,0,0,1-1-.51,2.12,2.12,0,0,1-.65-.91,10.28,10.28,0,0,1-.48-2.2,3.45,3.45,0,0,0-.33-1.06,1.67,1.67,0,0,0-.77-.76,6.29,6.29,0,0,0-1.52-.28,2.3,2.3,0,0,1-.76-.23,1.56,1.56,0,0,1-.59-.55,5.71,5.71,0,0,1-.51-1.43,3.39,3.39,0,0,0-3-2.55,3.41,3.41,0,0,0-2.38.73l-.08.06,0-.09a5.24,5.24,0,0,0-3.13-3,5,5,0,0,0-1.84-.25,4.41,4.41,0,0,0-1.53.35,3.88,3.88,0,0,0-1.69,1.4,4.28,4.28,0,0,0-.3.5l-.07.14,0,0,0,0,.06-.14a4.06,4.06,0,0,1,2-2,4.42,4.42,0,0,1,1.57-.37,4.85,4.85,0,0,1,1.88.24,5.38,5.38,0,0,1,3.23,3.05l-.12,0a3.56,3.56,0,0,1,2.49-.77,3.45,3.45,0,0,1,2.46,1.32,3.39,3.39,0,0,1,.66,1.33,5.33,5.33,0,0,0,.49,1.39,1.59,1.59,0,0,0,1.24.7,6.15,6.15,0,0,1,1.55.3,1.87,1.87,0,0,1,.86.83,3.77,3.77,0,0,1,.35,1.11,10.71,10.71,0,0,0,.46,2.17,2.12,2.12,0,0,0,.6.84,3.13,3.13,0,0,0,.92.49,7.86,7.86,0,0,1,1.93.77,2.18,2.18,0,0,1,.69.76,3,3,0,0,1,.3,1,4.85,4.85,0,0,1-.18,1.87,14.91,14.91,0,0,0-.88,3.19c0,.5,0,1,0,1.45a3.57,3.57,0,0,1-.22,1.29,1.87,1.87,0,0,1-.71.89,3.27,3.27,0,0,1-.91.31,1.77,1.77,0,0,0-.68.29,1,1,0,0,0-.34.41A.69.69,0,0,0,141.62,198Z" style="fill:#455a64"></path><path d="M152.75,190l-.05-.11-.14-.31-.51-1.23c-.22-.53-.47-1.19-.83-1.92a5.06,5.06,0,0,0-1.75-2.07c-.44-.26-.94-.45-1.45-.7a3.41,3.41,0,0,1-.73-.48,1.9,1.9,0,0,1-.53-.75c-.23-.58-.21-1.23-.39-1.83a1.49,1.49,0,0,0-.49-.78,2.78,2.78,0,0,0-.87-.46,5.3,5.3,0,0,1-.95-.42,1.74,1.74,0,0,1-.72-.82,7.88,7.88,0,0,1-.36-2.16,2.64,2.64,0,0,0-.32-1,1.38,1.38,0,0,0-.85-.62c-.72-.19-1.51,0-2.31-.14a1.94,1.94,0,0,1-1-.61,5.06,5.06,0,0,1-.64-1,10.38,10.38,0,0,0-.56-1,2.18,2.18,0,0,0-.78-.73,3.22,3.22,0,0,0-2.08-.09,4.82,4.82,0,0,1-2.1.08,5.62,5.62,0,0,1-1.79-.92,9.89,9.89,0,0,0-1.57-1,5.74,5.74,0,0,0-3.27-.27,6.16,6.16,0,0,0-2.49,1.13,6.48,6.48,0,0,0-1.41,1.52,7.07,7.07,0,0,0-.63,1.15c-.06.14-.11.24-.15.32l0,.1s0,0,0-.11l.12-.32a8,8,0,0,1,.61-1.18,6.6,6.6,0,0,1,1.42-1.55,6,6,0,0,1,2.51-1.17,5.74,5.74,0,0,1,3.35.25,9.69,9.69,0,0,1,1.61,1,5.57,5.57,0,0,0,1.73.89,4.73,4.73,0,0,0,2-.09,7.59,7.59,0,0,1,1.08-.13,2.29,2.29,0,0,1,1.11.23,2.36,2.36,0,0,1,.84.79c.21.31.39.66.57,1a4.67,4.67,0,0,0,.61.95,1.86,1.86,0,0,0,.95.57c.74.16,1.54-.06,2.32.14a1.57,1.57,0,0,1,.94.69,2.76,2.76,0,0,1,.34,1.1,8,8,0,0,0,.35,2.12,1.57,1.57,0,0,0,.65.74,5.61,5.61,0,0,0,.93.42,3,3,0,0,1,.91.48,1.71,1.71,0,0,1,.53.85c.19.64.16,1.28.38,1.83a2.25,2.25,0,0,0,1.19,1.16c.49.26,1,.45,1.45.72a5,5,0,0,1,1.77,2.13c.36.74.6,1.4.81,1.94l.48,1.23.12.33A.82.82,0,0,1,152.75,190Z" style="fill:#455a64"></path><path d="M147.17,183.91h.1a.66.66,0,0,1,.29.07,1.22,1.22,0,0,1,.5,1,3.21,3.21,0,0,1-.16.82,3.48,3.48,0,0,0-.19.95,2.1,2.1,0,0,0,.34,1c.2.35.45.69.65,1.09a1.6,1.6,0,0,1,.07,1.4c-.2.46-.56.83-.75,1.3a2.09,2.09,0,0,0,.08,1.53c.19.51.47,1,.65,1.59a2.46,2.46,0,0,1,.14.9,2.27,2.27,0,0,1-.26.91A10.33,10.33,0,0,1,147.5,198a2.55,2.55,0,0,0-.66,1.71,8.37,8.37,0,0,0,.57,1.9,2.91,2.91,0,0,1,.16,1,2.35,2.35,0,0,1-.31,1,8.06,8.06,0,0,1-1.27,1.5,4.44,4.44,0,0,0-1,1.52,13.63,13.63,0,0,1-.66,1.68,1.91,1.91,0,0,1-.59.67,2.33,2.33,0,0,1-.8.34,8,8,0,0,0-.78.24,2.77,2.77,0,0,0-.66.4,5.65,5.65,0,0,0-1,1.13c-.27.4-.53.79-.81,1.14a3.79,3.79,0,0,1-2,1.32,4.08,4.08,0,0,1-1.81.09,3.74,3.74,0,0,1-1.08-.38,2.64,2.64,0,0,1-.34-.22,4,4,0,0,0,1.43.53,4.09,4.09,0,0,0,1.77-.11,3.69,3.69,0,0,0,1.93-1.3c.27-.35.52-.74.79-1.14a6.28,6.28,0,0,1,1-1.17,3.28,3.28,0,0,1,.7-.43,7.19,7.19,0,0,1,.79-.24,2.39,2.39,0,0,0,.75-.32,1.83,1.83,0,0,0,.55-.62,14.87,14.87,0,0,0,.64-1.67,4.53,4.53,0,0,1,1.07-1.57,8.26,8.26,0,0,0,1.24-1.47,2.12,2.12,0,0,0,.29-.91,2.68,2.68,0,0,0-.15-1,8,8,0,0,1-.58-1.94,2.1,2.1,0,0,1,.18-1,4.74,4.74,0,0,1,.52-.84,10.18,10.18,0,0,0,1.12-1.49,2.08,2.08,0,0,0,.24-.84,2.51,2.51,0,0,0-.13-.85c-.17-.55-.45-1-.64-1.58a2.19,2.19,0,0,1-.07-1.63c.21-.5.58-.87.76-1.3a1.48,1.48,0,0,0-.05-1.3c-.19-.39-.45-.73-.64-1.08a2.17,2.17,0,0,1-.34-1.09,3.54,3.54,0,0,1,.2-1A2.74,2.74,0,0,0,148,185a1.15,1.15,0,0,0-.45-1A.6.6,0,0,0,147.17,183.91Z" style="fill:#455a64"></path><path d="M89.1,193.7a2.44,2.44,0,0,1-.44-.06,3.13,3.13,0,0,1-1.13-.56,3,3,0,0,1-1.09-1.68,3.12,3.12,0,0,1,.58-2.58,8,8,0,0,1,1.16-1.08,3.84,3.84,0,0,0,1.09-1.27,2.4,2.4,0,0,0,0-1.75c-.18-.6-.48-1.2-.65-1.86a5.55,5.55,0,0,1,.62-4.16A5.49,5.49,0,0,1,93,176.17l-.06.12a2.78,2.78,0,0,1-.42-1.22,3.62,3.62,0,0,1,.15-1.31,3.74,3.74,0,0,1,.61-1.19,4.76,4.76,0,0,1,1-.92,8.61,8.61,0,0,1,3.7-1.3,13.23,13.23,0,0,1,3.72,0l-.09.08a3.91,3.91,0,0,1,2.38-3.29,4,4,0,0,1,2-.28,6.36,6.36,0,0,1,1.79.57,3.76,3.76,0,0,0,.84.23,2.31,2.31,0,0,0,.83,0,6.71,6.71,0,0,0,1.5-.64,5.74,5.74,0,0,1,1.42-.58,5.24,5.24,0,0,1,1.4-.12A4.8,4.8,0,0,1,116,167a4.82,4.82,0,0,1,1.82,2.21,2.9,2.9,0,0,1,.12.36s0-.12-.15-.35a5.21,5.21,0,0,0-.55-1,4.87,4.87,0,0,0-1.29-1.19,4.52,4.52,0,0,0-2.22-.7,4.63,4.63,0,0,0-1.37.12,5.89,5.89,0,0,0-1.4.57,6.35,6.35,0,0,1-1.52.66,2.35,2.35,0,0,1-.88.06,3.77,3.77,0,0,1-.87-.25,6.34,6.34,0,0,0-1.75-.54,3.86,3.86,0,0,0-1.89.27,3.78,3.78,0,0,0-2.27,3.16v.09l-.09,0a12.88,12.88,0,0,0-3.67,0,8.4,8.4,0,0,0-3.62,1.26,4.73,4.73,0,0,0-1,.89,3.72,3.72,0,0,0-.58,1.14,3.08,3.08,0,0,0-.14,1.24,2.58,2.58,0,0,0,.39,1.15l.07.11-.13,0a5.27,5.27,0,0,0-4.29,6.49c.16.65.46,1.24.64,1.86a2.57,2.57,0,0,1,0,1.85,3.9,3.9,0,0,1-1.14,1.3,8.4,8.4,0,0,0-1.15,1,3,3,0,0,0-.57,2.5,2.84,2.84,0,0,0,1,1.65,3.12,3.12,0,0,0,1.11.58C89,193.68,89.1,193.69,89.1,193.7Z" style="fill:#263238"></path><path d="M149.29,180.21a.87.87,0,0,0,0-.11c0-.07,0-.18,0-.31,0-.28,0-.68-.05-1.19s-.08-1.16-.18-1.89a10.92,10.92,0,0,0-.61-2.41,7,7,0,0,0-1.64-2.5,5.34,5.34,0,0,0-1.38-.94,15.21,15.21,0,0,0-1.69-.58,4.88,4.88,0,0,1-1.7-.86,8.1,8.1,0,0,1-1.34-1.46c-.4-.54-.78-1.11-1.23-1.62a5.61,5.61,0,0,0-1.6-1.3,9.75,9.75,0,0,0-3.94-1,24.83,24.83,0,0,0-3.85,0,19.5,19.5,0,0,0-6.32,1.43,13.83,13.83,0,0,0-3.72,2.3c-.19.17-.37.32-.51.46l-.35.36-.22.22-.08.08.07-.09.2-.23.35-.38.5-.47a13.44,13.44,0,0,1,3.72-2.36,19.84,19.84,0,0,1,6.35-1.48,26.38,26.38,0,0,1,3.87,0,10.06,10.06,0,0,1,4,1.06,5.64,5.64,0,0,1,1.64,1.34c.46.53.84,1.09,1.24,1.63a8.23,8.23,0,0,0,1.31,1.44,4.84,4.84,0,0,0,1.65.83,15.65,15.65,0,0,1,1.71.59,5.41,5.41,0,0,1,1.4,1,7,7,0,0,1,1.66,2.56,10.49,10.49,0,0,1,.59,2.44c.1.74.13,1.37.15,1.89s0,.93,0,1.2v.31C149.3,180.17,149.3,180.21,149.29,180.21Z" style="fill:#263238"></path><path d="M123.69,201.62A2.07,2.07,0,0,1,125,200a1.81,1.81,0,0,1,2,.58,1.62,1.62,0,0,1,0,2,1.75,1.75,0,0,1-.83.64,2.19,2.19,0,0,1-1.34.05,1.5,1.5,0,0,1-.93-.58A1.46,1.46,0,0,1,123.69,201.62Z" style="fill:#924640"></path><path d="M124.57,199c.2,0,0,1.39,1,2.53s2.51,1.22,2.49,1.41-.37.22-1,.15A3.49,3.49,0,0,1,125,202a3,3,0,0,1-.77-2.12C124.27,199.28,124.47,199,124.57,199Z" style="fill:#263238"></path><path d="M111.25,204a14.49,14.49,0,0,0-1.91-4.13l-.36-.19a9.51,9.51,0,0,0-1.89,3.36,3.23,3.23,0,0,0,1.13,3.46,2.53,2.53,0,0,0,1.72.35,1.84,1.84,0,0,0,1.18-.63A2.53,2.53,0,0,0,111.25,204Z" style="fill:#e0e0e0"></path><path d="M110.18,213.68a33.65,33.65,0,0,0-9.89,14.89c-3.22,9.68,1.23,43.6,1.23,43.6-6.46,12.48-8.79,24.07-10.54,41l26.75,4.53L121.34,303l1.18,15.42,26.38-.77s-2.29-18.56-3-32.56c-.82-16,1.1-32.13.88-37.34-.39-8.86-1.85-9.55-13.46-22.18Z" style="fill:#455a64"></path><path d="M126.34,290.17l.29,0,.89-.07,3.42-.21,12.42-.69h.21l0,.22c.25,2.74.52,5.74.8,8.92.14,1.6.29,3.24.44,4.92.07.84.14,1.7.22,2.55a3.78,3.78,0,0,1-.68,2.65,3.66,3.66,0,0,1-1.56,1.22,5.51,5.51,0,0,1-1.88.32l-3.58.21c-2.36.11-4.63.2-6.8.16l-.81,0-.4,0a3.78,3.78,0,0,1-.46-.1,2.46,2.46,0,0,1-1.19-1.19,10,10,0,0,1-1-2.88,38.67,38.67,0,0,1-.59-5.34c-.15-3.27-.07-5.92,0-7.75,0-.91.09-1.62.12-2.1a5.4,5.4,0,0,1,.08-.73,3.41,3.41,0,0,1,0,.73c0,.53,0,1.23,0,2.1,0,1.83,0,4.48.17,7.73a37.81,37.81,0,0,0,.65,5.27,9.69,9.69,0,0,0,.92,2.75,2,2,0,0,0,1,1l.32.07.39,0,.8,0c2.15,0,4.42-.07,6.76-.19l3.58-.22a5,5,0,0,0,1.71-.28,3.14,3.14,0,0,0,1.34-1,3.22,3.22,0,0,0,.58-2.29c-.07-.86-.15-1.71-.22-2.55-.14-1.68-.28-3.33-.42-4.92-.26-3.19-.51-6.19-.74-8.94l.23.21-12.29.45-3.48.1-.93,0Z" style="fill:#263238"></path><path d="M121.48,264.89c.14,0,.26,8.95.26,20s-.12,20-.26,20-.27-8.95-.27-20S121.33,264.89,121.48,264.89Z" style="fill:#263238"></path><path d="M148.9,317.67a1.65,1.65,0,0,1-.5.06l-1.45.08-5.44.23-19,.65h-.23l0-.24c-.34-4.3-.7-9-1.09-13.94l.51.05-.06.21c-1.29,4.57-2.54,9-3.67,13l-.06.21-.22,0-19.21-3.35-5.53-1-1.47-.29a2,2,0,0,1-.5-.13,2.54,2.54,0,0,1,.52.05l1.48.21,5.55.87,19.24,3.16-.28.18c1.13-4,2.37-8.4,3.65-13l.06-.21.4-1.41.11,1.46c.37,4.93.73,9.64,1.05,13.95l-.25-.23,19-.46,5.45-.09h1.45A2.73,2.73,0,0,1,148.9,317.67Z" style="fill:#263238"></path><g style="opacity:0.30000000000000004"><polygon points="94.08 313.67 94.47 315.82 118.74 321.39 120.75 316.14 121.47 321.18 145.62 319.8 145.09 317.94 122.52 318.44 121.47 304.88 117.73 317.67 94.08 313.67"></polygon></g><path d="M187,302.84l2.29-7.11L187,288.6,173.25,280,168,286.93s1.09,2,2.16,3.54,5.3,2.13,5.3,2.13l1.86,5-.15,2-.83,2.09a1.1,1.1,0,0,0,1.74.37,9.26,9.26,0,0,0,1.91-3.05l0-3.1,1.09,2.64-1.75,4.19s.86,1.28,1.82.45l1-.84a1.14,1.14,0,0,0,1.8.13,14.84,14.84,0,0,0,2-1.91A2,2,0,0,0,187,302.84Z" style="fill:#c0645a"></path><path d="M181.74,290.47a9.46,9.46,0,0,1,1,1.73c.29.55.63,1.21,1,1.95l.56,1.16a10.66,10.66,0,0,1,.56,1.33,5.56,5.56,0,0,1-.72,2.65,11.62,11.62,0,0,1-1.15,1.88,15.08,15.08,0,0,1-1.23,1.59,7.57,7.57,0,0,1,1-1.75,13.71,13.71,0,0,0,1-1.87,5.49,5.49,0,0,0,.65-2.45c-.12-.36-.34-.83-.51-1.22l-.54-1.16-.91-2A10.42,10.42,0,0,1,181.74,290.47Z" style="fill:#924640"></path><path d="M184.8,289.4a8.22,8.22,0,0,1,1.1,1.54c.31.49.68,1.07,1.08,1.73l.62,1a10.19,10.19,0,0,1,.63,1.2,5.19,5.19,0,0,1-.45,2.54,10.24,10.24,0,0,1-.93,1.85,13.07,13.07,0,0,1-1,1.58,6.77,6.77,0,0,1,.78-1.72,12.21,12.21,0,0,0,.83-1.83,5.18,5.18,0,0,0,.41-2.33c-.14-.32-.39-.75-.58-1.09l-.59-1.05-1-1.78A8.93,8.93,0,0,1,184.8,289.4Z" style="fill:#924640"></path><polygon points="125.27 263.09 139.11 275.75 168.59 287.16 173.25 279.99 147.05 264.12 138.61 253.06 125.27 263.09" style="fill:#c0645a"></polygon><path d="M121.57,221.93c-9-8.06-23.36-.1-21,11.8a18.41,18.41,0,0,0,1.15,3.67c6.1,14.25,21.1,27.93,21.1,27.93l18-13.34-19.19-30.06Z" style="fill:#455a64"></path><path d="M121.57,221.93s0,0,.11.13l.28.41,1.07,1.61,4,6.11,14,21.68.12.18-.18.13L123,265.54l-.17.13-.16-.15c-1.49-1.39-3-2.91-4.52-4.5a93.48,93.48,0,0,1-15-20.09c-.48-.84-.85-1.73-1.26-2.58a17.62,17.62,0,0,1-1-2.6,11.84,11.84,0,0,1-.58-2.66l-.15-1.33a9.7,9.7,0,0,1,0-1.32,12.57,12.57,0,0,1,1.27-4.84,13.11,13.11,0,0,1,2.85-3.63,13.28,13.28,0,0,1,7.11-3.29l.85-.12h.83a7.94,7.94,0,0,1,1.56.09l1.42.24c.43.12.84.28,1.23.4a10.09,10.09,0,0,1,2,.92,6.27,6.27,0,0,1,1.32.89l.77.61c.17.14.25.21.24.22a1.34,1.34,0,0,1-.28-.18l-.79-.57a6.69,6.69,0,0,0-1.33-.83,9.54,9.54,0,0,0-2-.86c-.38-.12-.78-.27-1.22-.39l-1.39-.2a7.67,7.67,0,0,0-1.53-.07h-.81l-.83.13a13,13,0,0,0-9.64,6.82,12.07,12.07,0,0,0-1.2,4.68,8.94,8.94,0,0,0,0,1.27l.15,1.28a11.38,11.38,0,0,0,.58,2.59,18.39,18.39,0,0,0,1,2.55c.41.84.77,1.71,1.25,2.55,3.59,6.79,8.85,13.51,14.93,20,1.49,1.57,3,3.1,4.49,4.47l-.33,0,18-13.31-.05.31-13.79-21.78-3.87-6.18-1-1.65-.25-.43A1.21,1.21,0,0,1,121.57,221.93Z" style="fill:#263238"></path></g></svg>